<?xml version="1.0" encoding="UTF-8"?>
<svg width="800px" height="800px" viewBox="0 0 24 24" version="1.1" xmlns="http://www.w3.org/2000/svg">
    <g stroke="none" stroke-width="1" fill="none" fill-rule="evenodd">
        <path d="M12,2 C6.48,2 2,6.48 2,12 C2,17.52 6.48,22 12,22 C17.52,22 22,17.52 22,12 C22,6.48 17.52,2 12,2 Z M12,20 C7.59,20 4,16.41 4,12 C4,7.59 7.59,4 12,4 C16.41,4 20,7.59 20,12 C20,16.41 16.41,20 12,20 Z" fill="#1976d2" fill-rule="nonzero"/>
        <path d="M12,7 C11.45,7 11,7.45 11,8 L11,13 C11,13.55 11.45,14 12,14 C12.55,14 13,13.55 13,13 L13,8 C13,7.45 12.55,7 12,7 Z" fill="#1976d2" fill-rule="nonzero"/>
        <circle fill="#1976d2" fill-rule="nonzero" cx="12" cy="17" r="1"/>
    </g>
</svg> 