<svg width="500" height="500" viewBox="0 0 500 500" fill="none" xmlns="http://www.w3.org/2000/svg">
<path d="M442.33 98.1301C440.526 94.1098 438.437 90.2233 436.08 86.5001C422.38 66.8801 397.39 48.2701 351.82 47.3301C253.94 45.3301 282.36 210.21 157.97 225.11C39.73 239.19 29.12 354 66.31 393C118.31 440.71 169.8 461.7 282.22 457C368.33 453.43 424.33 436.23 451.57 402.13C468.65 380.74 476.84 352.78 479.57 318.39C485.86 238.63 461 138.56 442.33 98.1301Z" fill="#172554"/>
<path opacity="0.7" d="M442.33 98.1301C440.526 94.1098 438.437 90.2233 436.08 86.5001C422.38 66.8801 397.39 48.2701 351.82 47.3301C253.94 45.3301 282.36 210.21 157.97 225.11C39.73 239.19 29.12 354 66.31 393C118.31 440.71 169.8 461.7 282.22 457C368.33 453.43 424.33 436.23 451.57 402.13C468.65 380.74 476.84 352.78 479.57 318.39C485.86 238.63 461 138.56 442.33 98.1301Z" fill="white"/>
<path d="M451.57 402.2C424.33 436.3 368.33 453.5 282.22 457.07C169.8 461.73 118.35 440.74 66.31 393.07H442.31L451.57 402.2Z" fill="#999999"/>
<path d="M20.93 393.03H437.97" stroke="#263238" stroke-linecap="round" stroke-linejoin="round"/>
<path d="M442.33 82.8V393.03L469.9 420.6" stroke="#263238" stroke-linecap="round" stroke-linejoin="round"/>
<path d="M359.98 101.17V47.23" stroke="#263238" stroke-linecap="round" stroke-linejoin="round"/>
<path d="M336.7 124.45C336.636 121.353 337.19 118.274 338.331 115.394C339.472 112.514 341.176 109.891 343.344 107.678C345.511 105.464 348.099 103.706 350.955 102.506C353.811 101.306 356.877 100.688 359.975 100.688C363.073 100.688 366.139 101.306 368.995 102.506C371.851 103.706 374.438 105.464 376.606 107.678C378.774 109.891 380.478 112.514 381.619 115.394C382.76 118.274 383.314 121.353 383.25 124.45H336.7Z" stroke="#263238" stroke-linecap="round" stroke-linejoin="round"/>
<path d="M66.31 393.03H47.25" stroke="#263238" stroke-linecap="round" stroke-linejoin="round"/>
<path d="M143.57 268.8H123.58V393.04H143.57V268.8Z" stroke="#263238" stroke-linecap="round" stroke-linejoin="round"/>
<path d="M116.43 278.02H35.66V308.19H116.43V278.02Z" stroke="#263238" stroke-linecap="round" stroke-linejoin="round"/>
<path d="M116.43 311.48H35.66V341.65H116.43V311.48Z" stroke="#263238" stroke-linecap="round" stroke-linejoin="round"/>
<path d="M116.43 344.95H35.66V375.12H116.43V344.95Z" stroke="#263238" stroke-linecap="round" stroke-linejoin="round"/>
<path d="M67.55 280.2C67.55 281.091 67.904 281.946 68.5341 282.576C69.1642 283.206 70.0189 283.56 70.91 283.56H81.18C81.6221 283.561 82.0601 283.476 82.4689 283.307C82.8777 283.139 83.2493 282.892 83.5623 282.58C83.8754 282.267 84.1238 281.897 84.2933 281.488C84.4628 281.08 84.55 280.642 84.55 280.2" stroke="#263238" stroke-linecap="round" stroke-linejoin="round"/>
<path d="M67.55 313.66C67.5579 314.547 67.9151 315.395 68.544 316.02C69.173 316.645 70.0231 316.998 70.91 317H81.18C82.0738 317 82.931 316.645 83.563 316.013C84.1949 315.381 84.55 314.524 84.55 313.63" stroke="#263238" stroke-linecap="round" stroke-linejoin="round"/>
<path d="M67.55 347.13C67.55 348.022 67.9037 348.878 68.5335 349.51C69.1633 350.141 70.018 350.497 70.91 350.5H81.18C81.6226 350.5 82.0608 350.413 82.4696 350.244C82.8785 350.074 83.25 349.826 83.563 349.513C83.8759 349.2 84.1241 348.829 84.2935 348.42C84.4628 348.011 84.55 347.573 84.55 347.13" stroke="#263238" stroke-linecap="round" stroke-linejoin="round"/>
<path d="M120.31 393.04H29.12V268.8H120.31" stroke="#263238" stroke-linecap="round" stroke-linejoin="round"/>
<path d="M198.2 332.72V379.72L222.81 388.39C223.117 388.498 223.382 388.698 223.57 388.963C223.759 389.228 223.86 389.545 223.86 389.87V391.33C223.861 391.573 223.804 391.812 223.696 392.029C223.588 392.247 223.43 392.436 223.236 392.581C223.042 392.727 222.816 392.825 222.577 392.868C222.339 392.912 222.093 392.898 221.86 392.83L196.58 385.41L196.12 391.48C196.092 391.903 195.903 392.299 195.593 392.587C195.282 392.875 194.874 393.033 194.45 393.03H193.15C192.728 393.029 192.322 392.869 192.012 392.581C191.703 392.294 191.513 391.901 191.48 391.48L191.02 385.41L165.75 392.83C165.517 392.896 165.272 392.908 165.034 392.864C164.796 392.82 164.572 392.721 164.378 392.576C164.184 392.431 164.027 392.243 163.918 392.027C163.809 391.81 163.752 391.572 163.75 391.33V389.87C163.75 389.545 163.851 389.228 164.04 388.963C164.228 388.698 164.493 388.498 164.8 388.39L189.42 379.72V332.72" stroke="#263238" stroke-linecap="round" stroke-linejoin="round"/>
<path d="M186.97 315.7V302.08" stroke="#263238" stroke-linecap="round" stroke-linejoin="round"/>
<path d="M181.2 302.08V315.7" stroke="#263238" stroke-linecap="round" stroke-linejoin="round"/>
<path d="M162 299.66C157.9 299.5 155 296.84 155 292.24V268.39C155.067 266.947 155.551 265.554 156.394 264.38C157.237 263.207 158.403 262.303 159.75 261.78" stroke="#263238" stroke-linecap="round" stroke-linejoin="round"/>
<path d="M160.87 265.37V292.14C160.87 296.76 164.56 299.31 169.21 298.49C179.354 296.621 189.789 297.079 199.73 299.83C204.31 301.07 207.91 298.83 207.91 294.23V267.46C207.852 266.291 207.46 265.164 206.781 264.21C206.103 263.257 205.165 262.518 204.08 262.08C191.409 257.79 177.779 257.19 164.78 260.35C163.685 260.673 162.719 261.331 162.018 262.232C161.317 263.132 160.915 264.23 160.87 265.37Z" stroke="#263238" stroke-linecap="round" stroke-linejoin="round"/>
<path d="M179.75 317.68H166.45C165.329 317.679 164.219 317.899 163.183 318.327C162.147 318.755 161.205 319.383 160.412 320.175C159.619 320.967 158.99 321.908 158.56 322.944C158.131 323.979 157.91 325.089 157.91 326.21C157.91 327.247 158.322 328.242 159.055 328.975C159.788 329.708 160.783 330.12 161.82 330.12H177.29" stroke="#263238" stroke-linecap="round" stroke-linejoin="round"/>
<path d="M181.84 330.12H225.76C226.797 330.12 227.792 329.708 228.525 328.975C229.258 328.242 229.67 327.247 229.67 326.21C229.67 325.089 229.449 323.979 229.02 322.944C228.59 321.908 227.961 320.967 227.168 320.175C226.375 319.383 225.433 318.755 224.397 318.327C223.361 317.899 222.251 317.679 221.13 317.68H186.47C185.349 317.679 184.239 317.899 183.203 318.327C182.167 318.755 181.225 319.383 180.432 320.175C179.639 320.967 179.01 321.908 178.58 322.944C178.151 323.979 177.93 325.089 177.93 326.21C177.93 327.247 178.342 328.242 179.075 328.975C179.808 329.708 180.803 330.12 181.84 330.12Z" stroke="#263238" stroke-linecap="round" stroke-linejoin="round"/>
<path d="M388.63 247.84C389.153 247.829 389.654 247.63 390.042 247.279C390.43 246.928 390.677 246.449 390.74 245.93L395.12 205.16C395.153 204.919 395.134 204.674 395.063 204.441C394.993 204.209 394.872 203.994 394.711 203.813C394.549 203.631 394.35 203.487 394.127 203.389C393.904 203.292 393.663 203.245 393.42 203.25" stroke="#263238" stroke-linecap="round" stroke-linejoin="round"/>
<path d="M280.3 285.36H421.24V272.28H280.3V285.36Z" stroke="#263238" stroke-linecap="round" stroke-linejoin="round"/>
<path d="M230.13 272.27V285.35H278.12" stroke="#263238" stroke-linecap="round" stroke-linejoin="round"/>
<path d="M425.77 270.87V262.69H288.34" stroke="#263238" stroke-linecap="round" stroke-linejoin="round"/>
<path d="M225.59 270.88H286.15V262.7H225.59V270.88Z" stroke="#263238" stroke-linecap="round" stroke-linejoin="round"/>
<path d="M413.59 287.54V393.03H416.64L417.74 287.54" stroke="#263238" stroke-linecap="round" stroke-linejoin="round"/>
<path d="M409.45 287.54L410.54 393.03H413.59V287.54" stroke="#263238" stroke-linecap="round" stroke-linejoin="round"/>
<path d="M373.29 287.54V393.03H376.34L377.43 287.54" stroke="#263238" stroke-linecap="round" stroke-linejoin="round"/>
<path d="M369.15 287.54L370.24 393.03H373.29V287.54" stroke="#263238" stroke-linecap="round" stroke-linejoin="round"/>
<path d="M278.07 287.54V393.03H281.13L282.22 287.54" stroke="#263238" stroke-linecap="round" stroke-linejoin="round"/>
<path d="M273.93 287.54L275.02 393.03H278.07V287.54" stroke="#263238" stroke-linecap="round" stroke-linejoin="round"/>
<path d="M237.77 287.54V393.03H240.82L241.91 287.54" stroke="#263238" stroke-linecap="round" stroke-linejoin="round"/>
<path d="M233.63 287.54L234.72 393.03H237.77V287.54" stroke="#263238" stroke-linecap="round" stroke-linejoin="round"/>
<path d="M340.96 260.15H311.31V262.69H340.96V260.15Z" stroke="#263238" stroke-linecap="round" stroke-linejoin="round"/>
<path d="M395.45 262.69H388.57C388.111 262.69 387.671 262.508 387.347 262.183C387.022 261.859 386.84 261.419 386.84 260.96V258.78H397.18V260.96C397.18 261.419 396.998 261.859 396.673 262.183C396.349 262.508 395.909 262.69 395.45 262.69Z" stroke="#263238" stroke-linecap="round" stroke-linejoin="round"/>
<path d="M397.18 258.8C397.18 257.32 394.86 256.11 392 256.11C389.14 256.11 386.83 257.32 386.83 258.8H397.18Z" stroke="#263238" stroke-linecap="round" stroke-linejoin="round"/>
<path d="M386.83 258.8C386.83 257.32 389.15 256.11 392 256.11V258.8H386.83Z" stroke="#263238" stroke-linecap="round" stroke-linejoin="round"/>
<path d="M386.48 247.84H328.68C328.437 247.845 328.196 247.798 327.973 247.7C327.75 247.603 327.551 247.459 327.389 247.277C327.228 247.096 327.107 246.881 327.037 246.649C326.966 246.416 326.947 246.171 326.98 245.93L331.36 205.16C331.425 204.642 331.673 204.164 332.06 203.813C332.448 203.463 332.948 203.263 333.47 203.25H391.28C391.523 203.246 391.763 203.295 391.985 203.393C392.207 203.491 392.406 203.635 392.567 203.816C392.728 203.997 392.848 204.211 392.92 204.443C392.991 204.675 393.012 204.919 392.98 205.16L388.6 245.93C388.537 246.451 388.288 246.931 387.898 247.282C387.508 247.634 387.005 247.832 386.48 247.84Z" stroke="#263238" stroke-linecap="round" stroke-linejoin="round"/>
<path d="M365.94 248.93L366.93 258.11H369.11L368.12 248.93" stroke="#263238" stroke-linecap="round" stroke-linejoin="round"/>
<path d="M351.76 248.93L352.75 258.11H366.93L365.94 248.93" stroke="#263238" stroke-linecap="round" stroke-linejoin="round"/>
<path d="M384.07 244.89H331.73C331.519 244.895 331.309 244.854 331.115 244.769C330.921 244.685 330.747 244.56 330.606 244.402C330.466 244.244 330.361 244.057 330.299 243.855C330.238 243.653 330.221 243.439 330.25 243.23L334.05 207.86C334.105 207.408 334.322 206.991 334.66 206.686C334.998 206.381 335.435 206.209 335.89 206.2H388.23C388.441 206.195 388.651 206.236 388.845 206.32C389.039 206.405 389.213 206.53 389.354 206.688C389.494 206.846 389.599 207.032 389.661 207.235C389.722 207.437 389.739 207.65 389.71 207.86L385.91 243.23C385.855 243.682 385.638 244.099 385.3 244.404C384.962 244.708 384.525 244.881 384.07 244.89Z" stroke="#263238" stroke-linecap="round" stroke-linejoin="round"/>
<path d="M371.3 258.11H342.55V262.7H371.3V258.11Z" stroke="#263238" stroke-linecap="round" stroke-linejoin="round"/>
<path d="M379.71 258.11H371.3V262.7H379.71V258.11Z" stroke="#263238" stroke-linecap="round" stroke-linejoin="round"/>
<path d="M407 214.85H312.85V236.06H407V214.85Z" fill="white" stroke="#263238" stroke-linecap="round" stroke-linejoin="round"/>
<path d="M324.23 227.68L322.71 226.52L322.96 228.38C322.982 228.503 322.977 228.629 322.945 228.749C322.913 228.869 322.854 228.981 322.774 229.077C322.694 229.172 322.594 229.249 322.481 229.301C322.368 229.353 322.245 229.38 322.12 229.38C321.995 229.38 321.872 229.353 321.759 229.301C321.646 229.249 321.546 229.172 321.466 229.077C321.386 228.981 321.327 228.869 321.295 228.749C321.263 228.629 321.258 228.503 321.28 228.38L321.53 226.52L320 227.68C319.904 227.751 319.795 227.801 319.678 227.828C319.562 227.854 319.441 227.855 319.324 227.831C319.207 227.808 319.097 227.76 318.999 227.691C318.902 227.622 318.821 227.533 318.76 227.43C318.699 227.327 318.662 227.211 318.649 227.092C318.637 226.973 318.65 226.853 318.688 226.739C318.725 226.625 318.787 226.521 318.869 226.433C318.95 226.346 319.049 226.276 319.16 226.23L320.91 225.5L319.16 224.77C319.049 224.722 318.95 224.652 318.868 224.563C318.787 224.475 318.725 224.37 318.687 224.255C318.649 224.141 318.636 224.019 318.649 223.9C318.661 223.78 318.699 223.664 318.76 223.56C318.819 223.456 318.9 223.366 318.998 223.296C319.095 223.226 319.206 223.177 319.323 223.153C319.441 223.13 319.562 223.131 319.679 223.158C319.795 223.185 319.905 223.237 320 223.31L321.52 224.47L321.27 222.61C321.248 222.487 321.253 222.361 321.285 222.241C321.317 222.12 321.376 222.009 321.456 221.913C321.536 221.818 321.636 221.741 321.749 221.689C321.862 221.636 321.985 221.609 322.11 221.61C322.235 221.609 322.358 221.636 322.471 221.689C322.584 221.741 322.684 221.818 322.764 221.913C322.844 222.009 322.903 222.12 322.935 222.241C322.967 222.361 322.972 222.487 322.95 222.61L322.7 224.47L324.22 223.31C324.315 223.237 324.425 223.185 324.541 223.158C324.658 223.131 324.779 223.13 324.897 223.153C325.014 223.177 325.125 223.226 325.222 223.296C325.32 223.366 325.401 223.456 325.46 223.56C325.521 223.664 325.559 223.78 325.571 223.9C325.584 224.019 325.571 224.141 325.533 224.255C325.495 224.37 325.433 224.475 325.352 224.563C325.27 224.652 325.171 224.722 325.06 224.77L323.31 225.5L325.06 226.23C325.171 226.276 325.27 226.346 325.351 226.433C325.433 226.521 325.495 226.625 325.532 226.739C325.57 226.853 325.583 226.973 325.571 227.092C325.558 227.211 325.521 227.327 325.46 227.43C325.399 227.531 325.318 227.619 325.222 227.687C325.125 227.755 325.016 227.803 324.9 227.826C324.784 227.85 324.665 227.849 324.55 227.824C324.434 227.798 324.325 227.749 324.23 227.68Z" fill="#263238"/>
<path d="M337.8 227.68L336.28 226.52L336.53 228.38C336.552 228.503 336.547 228.629 336.515 228.749C336.483 228.869 336.424 228.981 336.344 229.077C336.264 229.172 336.164 229.249 336.051 229.301C335.938 229.353 335.815 229.38 335.69 229.38C335.566 229.381 335.443 229.354 335.33 229.301C335.217 229.249 335.118 229.172 335.038 229.076C334.959 228.981 334.902 228.869 334.871 228.748C334.84 228.628 334.836 228.502 334.86 228.38L335.11 226.52L333.59 227.68C333.493 227.751 333.383 227.802 333.266 227.828C333.149 227.854 333.027 227.856 332.91 227.832C332.792 227.808 332.68 227.761 332.582 227.691C332.484 227.622 332.402 227.533 332.34 227.43C332.281 227.326 332.245 227.21 332.234 227.091C332.223 226.972 332.238 226.851 332.276 226.738C332.315 226.625 332.377 226.521 332.459 226.433C332.541 226.346 332.64 226.276 332.75 226.23L334.49 225.5L332.75 224.77C332.639 224.722 332.54 224.652 332.458 224.563C332.377 224.475 332.314 224.37 332.276 224.256C332.237 224.142 332.223 224.021 332.234 223.901C332.245 223.781 332.281 223.665 332.34 223.56C332.4 223.456 332.482 223.365 332.581 223.295C332.679 223.225 332.79 223.176 332.909 223.153C333.027 223.129 333.149 223.131 333.266 223.158C333.384 223.185 333.494 223.237 333.59 223.31L335.11 224.47L334.86 222.61C334.836 222.488 334.84 222.362 334.871 222.242C334.902 222.121 334.959 222.009 335.038 221.913C335.118 221.818 335.217 221.741 335.33 221.688C335.443 221.636 335.566 221.609 335.69 221.61C335.815 221.609 335.938 221.636 336.051 221.689C336.164 221.741 336.264 221.818 336.344 221.913C336.424 222.009 336.483 222.12 336.515 222.241C336.547 222.361 336.552 222.487 336.53 222.61L336.28 224.47L337.8 223.31C337.895 223.237 338.005 223.185 338.121 223.158C338.238 223.131 338.359 223.13 338.477 223.153C338.594 223.177 338.705 223.226 338.802 223.296C338.9 223.366 338.981 223.456 339.04 223.56C339.101 223.664 339.139 223.78 339.151 223.9C339.164 224.02 339.151 224.141 339.113 224.255C339.075 224.37 339.013 224.475 338.932 224.563C338.85 224.652 338.751 224.723 338.64 224.77L336.9 225.5L338.64 226.23C338.751 226.276 338.85 226.346 338.931 226.433C339.013 226.521 339.075 226.625 339.112 226.739C339.15 226.853 339.163 226.973 339.151 227.092C339.138 227.211 339.101 227.327 339.04 227.43C338.979 227.533 338.898 227.622 338.801 227.691C338.703 227.76 338.593 227.808 338.476 227.831C338.359 227.855 338.238 227.854 338.122 227.828C338.005 227.801 337.896 227.751 337.8 227.68Z" fill="#263238"/>
<path d="M351.37 227.68L349.85 226.52L350.1 228.38C350.124 228.502 350.12 228.628 350.089 228.748C350.058 228.869 350.001 228.981 349.922 229.076C349.842 229.172 349.743 229.249 349.63 229.302C349.517 229.354 349.394 229.381 349.27 229.38C349.145 229.382 349.021 229.357 348.907 229.305C348.793 229.253 348.692 229.176 348.611 229.08C348.531 228.985 348.473 228.872 348.441 228.751C348.41 228.63 348.406 228.503 348.43 228.38L348.68 226.52L347.16 227.68C347.064 227.751 346.955 227.802 346.838 227.828C346.722 227.854 346.601 227.855 346.484 227.832C346.367 227.808 346.257 227.76 346.159 227.691C346.062 227.622 345.981 227.533 345.92 227.43C345.859 227.327 345.822 227.212 345.809 227.092C345.797 226.973 345.81 226.853 345.848 226.739C345.885 226.626 345.947 226.521 346.029 226.433C346.11 226.346 346.21 226.276 346.32 226.23L348.06 225.5L346.32 224.77C346.209 224.723 346.11 224.652 346.028 224.563C345.947 224.475 345.885 224.37 345.847 224.255C345.809 224.141 345.796 224.02 345.809 223.9C345.821 223.78 345.859 223.664 345.92 223.56C345.979 223.456 346.06 223.366 346.158 223.296C346.255 223.226 346.366 223.177 346.483 223.153C346.601 223.13 346.722 223.131 346.839 223.158C346.955 223.185 347.065 223.237 347.16 223.31L348.68 224.47L348.43 222.61C348.406 222.487 348.41 222.36 348.441 222.239C348.473 222.118 348.531 222.005 348.611 221.91C348.692 221.814 348.793 221.737 348.907 221.685C349.021 221.633 349.145 221.608 349.27 221.61C349.394 221.609 349.517 221.636 349.63 221.688C349.743 221.741 349.842 221.818 349.922 221.914C350.001 222.009 350.058 222.121 350.089 222.242C350.12 222.362 350.124 222.488 350.1 222.61L349.85 224.47L351.37 223.31C351.465 223.237 351.575 223.185 351.691 223.158C351.808 223.131 351.929 223.13 352.047 223.153C352.164 223.177 352.275 223.226 352.372 223.296C352.47 223.366 352.551 223.456 352.61 223.56C352.669 223.665 352.705 223.781 352.716 223.901C352.727 224.021 352.713 224.142 352.674 224.256C352.636 224.37 352.573 224.475 352.492 224.563C352.41 224.652 352.311 224.722 352.2 224.77L350.46 225.5L352.2 226.23C352.311 226.276 352.41 226.346 352.491 226.433C352.573 226.521 352.635 226.626 352.672 226.739C352.71 226.853 352.723 226.973 352.711 227.092C352.698 227.212 352.661 227.327 352.6 227.43C352.539 227.531 352.458 227.619 352.362 227.687C352.265 227.755 352.156 227.803 352.04 227.826C351.924 227.85 351.805 227.849 351.69 227.824C351.574 227.799 351.465 227.75 351.37 227.68Z" fill="#263238"/>
<path d="M365 227.68L363.47 226.52L363.72 228.38C363.744 228.502 363.74 228.628 363.709 228.748C363.678 228.869 363.621 228.981 363.542 229.076C363.462 229.172 363.363 229.249 363.25 229.301C363.137 229.354 363.014 229.381 362.89 229.38C362.765 229.38 362.642 229.353 362.529 229.301C362.416 229.249 362.316 229.172 362.236 229.077C362.156 228.981 362.097 228.869 362.065 228.749C362.033 228.629 362.028 228.503 362.05 228.38L362.3 226.52L360.78 227.68C360.684 227.751 360.575 227.801 360.458 227.828C360.342 227.854 360.221 227.855 360.104 227.831C359.987 227.808 359.877 227.76 359.779 227.691C359.682 227.622 359.601 227.533 359.54 227.43C359.479 227.327 359.442 227.211 359.429 227.092C359.417 226.973 359.43 226.853 359.468 226.739C359.505 226.625 359.567 226.521 359.649 226.433C359.73 226.346 359.829 226.276 359.94 226.23L361.69 225.5L359.94 224.77C359.829 224.723 359.73 224.652 359.648 224.563C359.567 224.475 359.505 224.37 359.467 224.255C359.429 224.141 359.416 224.02 359.429 223.9C359.441 223.78 359.479 223.664 359.54 223.56C359.599 223.456 359.68 223.366 359.778 223.296C359.875 223.226 359.986 223.177 360.103 223.153C360.221 223.13 360.342 223.131 360.459 223.158C360.575 223.185 360.685 223.237 360.78 223.31L362.3 224.47L362.05 222.61C362.028 222.487 362.033 222.361 362.065 222.241C362.097 222.12 362.156 222.009 362.236 221.913C362.316 221.818 362.416 221.741 362.529 221.689C362.642 221.636 362.765 221.609 362.89 221.61C363.014 221.609 363.137 221.636 363.25 221.688C363.363 221.741 363.462 221.818 363.542 221.913C363.621 222.009 363.678 222.121 363.709 222.242C363.74 222.362 363.744 222.488 363.72 222.61L363.47 224.47L365 223.31C365.095 223.237 365.205 223.185 365.321 223.158C365.438 223.131 365.559 223.13 365.677 223.153C365.794 223.177 365.905 223.226 366.002 223.296C366.1 223.366 366.181 223.456 366.24 223.56C366.299 223.664 366.336 223.78 366.347 223.899C366.359 224.019 366.346 224.14 366.308 224.254C366.27 224.368 366.209 224.472 366.129 224.561C366.048 224.65 365.95 224.721 365.84 224.77L364.09 225.5L365.83 226.23C365.94 226.276 366.039 226.346 366.121 226.433C366.203 226.521 366.265 226.625 366.304 226.738C366.342 226.851 366.357 226.972 366.346 227.091C366.335 227.21 366.299 227.326 366.24 227.43C366.179 227.533 366.098 227.622 366.001 227.691C365.903 227.76 365.793 227.808 365.676 227.831C365.559 227.855 365.438 227.854 365.322 227.828C365.205 227.801 365.096 227.751 365 227.68Z" fill="#263238"/>
<path d="M378.52 227.68L377 226.52L377.25 228.38C377.272 228.503 377.267 228.629 377.235 228.749C377.203 228.869 377.144 228.981 377.064 229.077C376.984 229.172 376.884 229.249 376.771 229.301C376.658 229.353 376.535 229.38 376.41 229.38C376.285 229.38 376.162 229.353 376.049 229.301C375.936 229.249 375.836 229.172 375.756 229.077C375.676 228.981 375.617 228.869 375.585 228.749C375.553 228.629 375.548 228.503 375.57 228.38L375.82 226.52L374.3 227.68C374.204 227.751 374.095 227.801 373.978 227.828C373.862 227.854 373.741 227.855 373.624 227.831C373.507 227.808 373.397 227.76 373.299 227.691C373.202 227.622 373.121 227.533 373.06 227.43C372.999 227.327 372.962 227.211 372.949 227.092C372.937 226.973 372.95 226.853 372.988 226.739C373.025 226.625 373.087 226.521 373.169 226.433C373.25 226.346 373.349 226.276 373.46 226.23L375.21 225.5L373.46 224.77C373.349 224.722 373.25 224.652 373.168 224.563C373.087 224.475 373.025 224.37 372.987 224.255C372.949 224.141 372.936 224.019 372.949 223.9C372.961 223.78 372.999 223.664 373.06 223.56C373.119 223.456 373.2 223.366 373.298 223.296C373.395 223.226 373.506 223.177 373.623 223.153C373.741 223.13 373.862 223.131 373.979 223.158C374.095 223.185 374.205 223.237 374.3 223.31L375.82 224.47L375.57 222.61C375.548 222.487 375.553 222.361 375.585 222.241C375.617 222.12 375.676 222.009 375.756 221.913C375.836 221.818 375.936 221.741 376.049 221.689C376.162 221.636 376.285 221.609 376.41 221.61C376.535 221.609 376.658 221.636 376.771 221.689C376.884 221.741 376.984 221.818 377.064 221.913C377.144 222.009 377.203 222.12 377.235 222.241C377.267 222.361 377.272 222.487 377.25 222.61L377 224.4L378.52 223.24C378.615 223.167 378.725 223.115 378.841 223.088C378.958 223.061 379.079 223.06 379.197 223.083C379.314 223.107 379.425 223.156 379.522 223.226C379.62 223.296 379.701 223.386 379.76 223.49C379.821 223.594 379.859 223.71 379.871 223.83C379.884 223.95 379.871 224.071 379.833 224.185C379.795 224.3 379.733 224.405 379.652 224.493C379.57 224.582 379.471 224.652 379.36 224.7L377.61 225.43L379.36 226.16C379.47 226.206 379.57 226.276 379.651 226.363C379.733 226.451 379.795 226.555 379.832 226.669C379.87 226.783 379.883 226.903 379.871 227.022C379.858 227.141 379.821 227.257 379.76 227.36C379.706 227.468 379.629 227.564 379.534 227.64C379.44 227.716 379.33 227.771 379.213 227.802C379.095 227.832 378.973 227.837 378.853 227.816C378.734 227.795 378.62 227.748 378.52 227.68Z" fill="#263238"/>
<path d="M401.21 225.46C401.21 225.46 398.44 228.91 395.03 228.91C391.62 228.91 388.86 225.46 388.86 225.46C388.86 225.46 391.62 222 395 222C398.38 222 401.21 225.46 401.21 225.46Z" fill="white" stroke="#263238" stroke-linecap="round" stroke-linejoin="round"/>
<path d="M397.16 225.46C397.162 225.882 397.039 226.294 396.806 226.646C396.573 226.998 396.241 227.272 395.852 227.435C395.463 227.598 395.034 227.641 394.621 227.56C394.207 227.479 393.826 227.277 393.527 226.98C393.229 226.682 393.025 226.303 392.942 225.889C392.859 225.476 392.9 225.047 393.061 224.657C393.222 224.267 393.495 223.934 393.846 223.7C394.196 223.465 394.608 223.34 395.03 223.34C395.309 223.339 395.586 223.392 395.844 223.498C396.103 223.604 396.338 223.76 396.536 223.957C396.733 224.154 396.891 224.388 396.998 224.646C397.105 224.904 397.16 225.181 397.16 225.46Z" fill="#999999" stroke="#263238" stroke-linecap="round" stroke-linejoin="round"/>
<path d="M377.38 317.86C377.38 317.86 365.93 341.51 355.87 329.51C345.81 317.51 362.81 313.01 362.81 313.01C362.81 313.01 342.33 315.43 342.33 304.33C342.33 293.23 356.91 300.17 356.91 300.17C356.91 300.17 337.97 285.4 347.19 279.17C353.61 274.83 369.05 290.5 369.05 290.5C369.05 290.5 363.15 275.18 370.05 274.83C376.95 274.48 381.51 296.7 381.51 296.7C381.51 296.7 385.32 280.33 392.26 285.04C399.2 289.75 386.81 307.93 386.81 307.93C386.81 307.93 395.73 299.12 398.16 305.37C400.59 311.62 386.81 315.78 386.81 315.78C386.81 315.78 386.71 338.69 379.08 335.91C371.45 333.13 377.38 317.86 377.38 317.86Z" fill="#172554"/>
<path d="M401.79 369.22C401.79 369.22 401.79 316.48 370.41 300.51" stroke="#263238" stroke-linecap="round" stroke-linejoin="round"/>
<path d="M381.63 308.93C381.63 308.93 372.87 310.49 362.98 321.25" stroke="#263238" stroke-linecap="round" stroke-linejoin="round"/>
<path d="M375.5 303.61C375.5 303.61 365.84 306.56 356.5 305.49" stroke="#263238" stroke-linecap="round" stroke-linejoin="round"/>
<path d="M378.22 305.72C382.732 302.698 386.294 298.457 388.49 293.49" stroke="#263238" stroke-linecap="round" stroke-linejoin="round"/>
<path d="M436.91 333.41C436.91 333.41 446.57 353.36 455.06 343.24C463.55 333.12 449.2 329.31 449.2 329.31C449.2 329.31 466.48 331.36 466.48 321.99C466.48 312.62 454.18 318.47 454.18 318.47C454.18 318.47 470.18 306.01 462.38 300.75C456.96 297.1 443.93 310.31 443.93 310.31C443.93 310.31 448.93 297.39 443.06 297.1C437.19 296.81 433.39 315.55 433.39 315.55C433.39 315.55 430.17 301.73 424.32 305.71C418.47 309.69 428.92 325.03 428.92 325.03C428.92 325.03 421.39 317.59 419.34 322.87C417.29 328.15 428.92 331.65 428.92 331.65C428.92 331.65 429 350.97 435.44 348.65C441.88 346.33 436.91 333.41 436.91 333.41Z" fill="#172554"/>
<mask id="mask0_396_4721" style="mask-type:luminance" maskUnits="userSpaceOnUse" x="419" y="297" width="48" height="52">
<path d="M436.91 333.41C436.91 333.41 446.57 353.36 455.06 343.24C463.55 333.12 449.2 329.31 449.2 329.31C449.2 329.31 466.48 331.36 466.48 321.99C466.48 312.62 454.18 318.47 454.18 318.47C454.18 318.47 470.18 306.01 462.38 300.75C456.96 297.1 443.93 310.31 443.93 310.31C443.93 310.31 448.93 297.39 443.06 297.1C437.19 296.81 433.39 315.55 433.39 315.55C433.39 315.55 430.17 301.73 424.32 305.71C418.47 309.69 428.92 325.03 428.92 325.03C428.92 325.03 421.39 317.59 419.34 322.87C417.29 328.15 428.92 331.65 428.92 331.65C428.92 331.65 429 350.97 435.44 348.65C441.88 346.33 436.91 333.41 436.91 333.41Z" fill="white"/>
</mask>
<g mask="url(#mask0_396_4721)">
<path opacity="0.1" d="M436.91 333.41C436.91 333.41 446.57 353.36 455.06 343.24C463.55 333.12 449.2 329.31 449.2 329.31C449.2 329.31 466.48 331.36 466.48 321.99C466.48 312.62 454.18 318.47 454.18 318.47C454.18 318.47 470.18 306.01 462.38 300.75C456.96 297.1 443.93 310.31 443.93 310.31C443.93 310.31 448.93 297.39 443.06 297.1C437.19 296.81 433.39 315.55 433.39 315.55C433.39 315.55 430.17 301.73 424.32 305.71C418.47 309.69 428.92 325.03 428.92 325.03C428.92 325.03 421.39 317.59 419.34 322.87C417.29 328.15 428.92 331.65 428.92 331.65C428.92 331.65 429 350.97 435.44 348.65C441.88 346.33 436.91 333.41 436.91 333.41Z" fill="black"/>
</g>
<path d="M435.74 322.42C422.09 332.27 420.14 366.42 420.14 366.42" stroke="#263238" stroke-linecap="round" stroke-linejoin="round"/>
<path d="M431.71 326.38C437.218 328.502 442.178 331.838 446.22 336.14" stroke="#263238" stroke-linecap="round" stroke-linejoin="round"/>
<path d="M440.15 305.72C440.15 313.18 435.73 322.42 435.73 322.42L438.97 323.42" stroke="#263238" stroke-linecap="round" stroke-linejoin="round"/>
<path d="M441.64 324.22C441.64 324.22 449.87 326.06 456.11 324.22" stroke="#263238" stroke-linecap="round" stroke-linejoin="round"/>
<path d="M407.55 282C407.55 282 384.44 283 385.89 270.62C387.1 260.28 403.46 267.19 403.46 267.19C403.46 267.19 390.04 251.54 399.26 245.36C408.48 239.18 414 257.18 414 257.18C414 257.18 419.88 231.18 430.19 235.33C437.37 238.25 425.68 259.8 425.68 259.8C425.68 259.8 439.27 250.53 443.43 256.1C447.59 261.67 427.49 273.63 427.49 273.63C427.49 273.63 443.21 267.68 443.16 276.07C443.11 284.46 421.11 284.29 421.11 284.29C421.11 284.29 433.4 286.8 429.56 292.29C425.72 297.78 414.56 288.66 414.56 288.66C414.56 288.66 399.51 299.55 397.56 291.66C395.61 283.77 407.55 282 407.55 282Z" fill="#172554"/>
<mask id="mask1_396_4721" style="mask-type:luminance" maskUnits="userSpaceOnUse" x="385" y="234" width="59" height="61">
<path d="M407.55 282C407.55 282 384.44 283 385.89 270.62C387.1 260.28 403.46 267.19 403.46 267.19C403.46 267.19 390.04 251.54 399.26 245.36C408.48 239.18 414 257.18 414 257.18C414 257.18 419.88 231.18 430.19 235.33C437.37 238.25 425.68 259.8 425.68 259.8C425.68 259.8 439.27 250.53 443.43 256.1C447.59 261.67 427.49 273.63 427.49 273.63C427.49 273.63 443.21 267.68 443.16 276.07C443.11 284.46 421.11 284.29 421.11 284.29C421.11 284.29 433.4 286.8 429.56 292.29C425.72 297.78 414.56 288.66 414.56 288.66C414.56 288.66 399.51 299.55 397.56 291.66C395.61 283.77 407.55 282 407.55 282Z" fill="white"/>
</mask>
<g mask="url(#mask1_396_4721)">
<path opacity="0.2" d="M407.55 282C407.55 282 384.44 283 385.89 270.62C387.1 260.28 403.46 267.19 403.46 267.19C403.46 267.19 390.04 251.54 399.26 245.36C408.48 239.18 414 257.18 414 257.18C414 257.18 419.88 231.18 430.19 235.33C437.37 238.25 425.68 259.8 425.68 259.8C425.68 259.8 439.27 250.53 443.43 256.1C447.59 261.67 427.49 273.63 427.49 273.63C427.49 273.63 443.21 267.68 443.16 276.07C443.11 284.46 421.11 284.29 421.11 284.29C421.11 284.29 433.4 286.8 429.56 292.29C425.72 297.78 414.56 288.66 414.56 288.66C414.56 288.66 399.51 299.55 397.56 291.66C395.61 283.77 407.55 282 407.55 282Z" fill="white"/>
</g>
<path d="M410.74 369.22C410.74 369.22 407.05 303.94 420.13 260.22" stroke="#263238" stroke-linecap="round" stroke-linejoin="round"/>
<path d="M394.69 272.14C394.69 272.14 404.43 271.32 415.94 277.64" stroke="#263238" stroke-linecap="round" stroke-linejoin="round"/>
<path d="M402.79 251.58C402.79 251.58 412.53 261.12 416.5 274.83" stroke="#263238" stroke-linecap="round" stroke-linejoin="round"/>
<path d="M417.37 270.79C417.37 270.79 423.7 263.79 431.71 261.99" stroke="#263238" stroke-linecap="round" stroke-linejoin="round"/>
<path d="M435.53 362.76H385.76L389.76 407.89C389.802 408.365 390.021 408.807 390.372 409.129C390.724 409.451 391.183 409.629 391.66 409.63L392.66 420.78C392.705 421.256 392.925 421.698 393.279 422.019C393.632 422.341 394.092 422.52 394.57 422.52H426.72C427.197 422.519 427.656 422.341 428.008 422.019C428.359 421.697 428.578 421.255 428.62 420.78L429.62 409.63C430.098 409.63 430.558 409.451 430.911 409.129C431.265 408.808 431.485 408.366 431.53 407.89L435.53 362.76Z" fill="white" stroke="#263238" stroke-linecap="round" stroke-linejoin="round"/>
<path d="M435.85 366.45H385.44C384.497 366.447 383.593 366.072 382.926 365.404C382.259 364.737 381.883 363.833 381.88 362.89C381.883 361.947 382.259 361.043 382.926 360.376C383.593 359.709 384.497 359.333 385.44 359.33H435.85C436.792 359.333 437.695 359.709 438.361 360.376C439.026 361.044 439.4 361.948 439.4 362.89C439.4 363.833 439.026 364.737 438.361 365.404C437.695 366.071 436.792 366.447 435.85 366.45Z" fill="#263238" stroke="#263238" stroke-linecap="round" stroke-linejoin="round"/>
<path d="M420.44 409.76H423.74" stroke="#263238" stroke-linecap="round" stroke-linejoin="round"/>
<path d="M397.54 409.76H417.13" stroke="#263238" stroke-linecap="round" stroke-linejoin="round"/>
<path d="M300.26 38.73H286.63V299.41H300.26C302.43 299.407 304.511 298.543 306.045 297.008C307.578 295.472 308.44 293.39 308.44 291.22V46.92C308.44 44.7496 307.578 42.6679 306.045 41.1323C304.511 39.5967 302.43 38.7326 300.26 38.73Z" fill="#999999" stroke="#263238" stroke-linecap="round" stroke-linejoin="round"/>
<path d="M296.58 38.73H177.97C173.828 38.73 170.47 42.0878 170.47 46.23V291.91C170.47 296.052 173.828 299.41 177.97 299.41H296.58C300.722 299.41 304.08 296.052 304.08 291.91V46.23C304.08 42.0878 300.722 38.73 296.58 38.73Z" fill="#263238" stroke="#263238" stroke-linecap="round" stroke-linejoin="round"/>
<path d="M260.41 50.1999C260.217 51.7972 259.447 53.2687 258.244 54.337C257.041 55.4054 255.489 55.9969 253.88 55.9999H219.54C217.929 56.0015 216.373 55.4119 215.168 54.3429C213.962 53.2739 213.191 51.7997 213 50.1999C212.798 48.6109 212.023 47.1502 210.821 46.0916C209.619 45.033 208.072 44.4493 206.47 44.4499H182.32C180.58 44.4499 178.911 45.139 177.678 46.3666C176.445 47.5941 175.748 49.26 175.74 50.9999V287.11C175.743 288.854 176.437 290.526 177.67 291.76C178.904 292.993 180.576 293.687 182.32 293.69H292.23C293.975 293.69 295.649 292.997 296.883 291.763C298.117 290.529 298.81 288.855 298.81 287.11V50.9999C298.811 50.1355 298.642 49.2792 298.312 48.4803C297.982 47.6814 297.497 46.9555 296.886 46.3442C296.274 45.733 295.549 45.2483 294.75 44.9181C293.951 44.5879 293.094 44.4186 292.23 44.4199H266.94C265.334 44.4202 263.783 45.0081 262.58 46.0728C261.377 47.1375 260.605 48.6055 260.41 50.1999Z" fill="#172554"/>
<mask id="mask2_396_4721" style="mask-type:luminance" maskUnits="userSpaceOnUse" x="175" y="44" width="124" height="250">
<path d="M260.41 50.1999C260.217 51.7972 259.447 53.2687 258.244 54.337C257.041 55.4054 255.489 55.9969 253.88 55.9999H219.54C217.929 56.0015 216.373 55.4119 215.168 54.3429C213.962 53.2739 213.191 51.7997 213 50.1999C212.798 48.6109 212.023 47.1502 210.821 46.0916C209.619 45.033 208.072 44.4493 206.47 44.4499H182.32C180.58 44.4499 178.911 45.139 177.678 46.3666C176.445 47.5941 175.748 49.26 175.74 50.9999V287.11C175.743 288.854 176.437 290.526 177.67 291.76C178.904 292.993 180.576 293.687 182.32 293.69H292.23C293.975 293.69 295.649 292.997 296.883 291.763C298.117 290.529 298.81 288.855 298.81 287.11V50.9999C298.811 50.1355 298.642 49.2792 298.312 48.4803C297.982 47.6814 297.497 46.9555 296.886 46.3442C296.274 45.733 295.549 45.2483 294.75 44.9181C293.951 44.5879 293.094 44.4186 292.23 44.4199H266.94C265.334 44.4202 263.783 45.0081 262.58 46.0728C261.377 47.1375 260.605 48.6055 260.41 50.1999Z" fill="white"/>
</mask>
<g mask="url(#mask2_396_4721)">
<path opacity="0.4" d="M211.99 310.27H171.83L268.64 25.2699H308.8L211.99 310.27Z" fill="white"/>
<path opacity="0.4" d="M240.07 310.27H229.39L326.21 25.2699H336.89L240.07 310.27Z" fill="white"/>
</g>
<path d="M260.41 50.1999C260.217 51.7972 259.447 53.2687 258.244 54.337C257.041 55.4054 255.489 55.9969 253.88 55.9999H219.54C217.929 56.0015 216.373 55.4119 215.168 54.3429C213.962 53.2739 213.191 51.7997 213 50.1999C212.798 48.6109 212.023 47.1502 210.821 46.0916C209.619 45.033 208.072 44.4493 206.47 44.4499H182.32C180.58 44.4499 178.911 45.139 177.678 46.3666C176.445 47.5941 175.748 49.26 175.74 50.9999V287.11C175.743 288.854 176.437 290.526 177.67 291.76C178.904 292.993 180.576 293.687 182.32 293.69H292.23C293.975 293.69 295.649 292.997 296.883 291.763C298.117 290.529 298.81 288.855 298.81 287.11V50.9999C298.811 50.1355 298.642 49.2792 298.312 48.4803C297.982 47.6814 297.497 46.9555 296.886 46.3442C296.274 45.733 295.549 45.2483 294.75 44.9181C293.951 44.5879 293.094 44.4186 292.23 44.4199H266.94C265.334 44.4202 263.783 45.0081 262.58 46.0728C261.377 47.1375 260.605 48.6055 260.41 50.1999Z" stroke="#263238" stroke-linecap="round" stroke-linejoin="round"/>
<path d="M225.46 47.83C225.46 48.4233 225.284 49.0033 224.954 49.4967C224.625 49.99 224.156 50.3745 223.608 50.6016C223.06 50.8287 222.457 50.8881 221.875 50.7723C221.293 50.6566 220.758 50.3708 220.339 49.9513C219.919 49.5317 219.633 48.9972 219.518 48.4152C219.402 47.8333 219.461 47.2301 219.688 46.6819C219.915 46.1337 220.3 45.6652 220.793 45.3355C221.287 45.0059 221.867 44.83 222.46 44.83C223.256 44.83 224.019 45.146 224.581 45.7086C225.144 46.2712 225.46 47.0343 225.46 47.83Z" fill="#172554" stroke="#263238" stroke-linecap="round" stroke-linejoin="round"/>
<path d="M249.18 44.9199H234C233.228 44.9199 232.488 45.2265 231.942 45.7722C231.397 46.318 231.09 47.0581 231.09 47.8299C231.09 48.6017 231.397 49.3419 231.942 49.8876C232.488 50.4333 233.228 50.7399 234 50.7399H249.18C249.952 50.7399 250.692 50.4333 251.238 49.8876C251.783 49.3419 252.09 48.6017 252.09 47.8299C252.09 47.0581 251.783 46.318 251.238 45.7722C250.692 45.2265 249.952 44.9199 249.18 44.9199Z" fill="#999999" stroke="#263238" stroke-linecap="round" stroke-linejoin="round"/>
<path d="M251 280.87H221.82C221.024 280.87 220.261 281.186 219.699 281.749C219.136 282.311 218.82 283.074 218.82 283.87C218.82 284.666 219.136 285.429 219.699 285.991C220.261 286.554 221.024 286.87 221.82 286.87H251C251.796 286.87 252.559 286.554 253.121 285.991C253.684 285.429 254 284.666 254 283.87C254 283.074 253.684 282.311 253.121 281.749C252.559 281.186 251.796 280.87 251 280.87Z" fill="#999999" stroke="#263238" stroke-linecap="round" stroke-linejoin="round"/>
<path d="M309.93 105.07V85.5699C309.93 85.1376 309.758 84.723 309.453 84.4174C309.147 84.1117 308.732 83.9399 308.3 83.9399C307.868 83.9399 307.453 84.1117 307.147 84.4174C306.842 84.723 306.67 85.1376 306.67 85.5699V105.07C306.67 105.502 306.842 105.917 307.147 106.223C307.453 106.528 307.868 106.7 308.3 106.7C308.732 106.7 309.147 106.528 309.453 106.223C309.758 105.917 309.93 105.502 309.93 105.07Z" fill="#263238"/>
<path d="M309.93 119.55V113.06C309.93 112.628 309.758 112.213 309.453 111.907C309.147 111.602 308.732 111.43 308.3 111.43C307.868 111.43 307.453 111.602 307.147 111.907C306.842 112.213 306.67 112.628 306.67 113.06V119.55C306.67 119.982 306.842 120.397 307.147 120.703C307.453 121.008 307.868 121.18 308.3 121.18C308.732 121.18 309.147 121.008 309.453 120.703C309.758 120.397 309.93 119.982 309.93 119.55Z" fill="#263238"/>
<path d="M312.96 133.93H165.85V167.07H312.96V133.93Z" fill="white" stroke="#263238" stroke-linecap="round" stroke-linejoin="round"/>
<path d="M183.63 154L181.25 152.19L181.64 155.1C181.666 155.286 181.651 155.476 181.598 155.656C181.544 155.836 181.453 156.002 181.33 156.144C181.207 156.286 181.055 156.401 180.884 156.479C180.713 156.558 180.528 156.599 180.34 156.6C180.151 156.6 179.965 156.56 179.793 156.482C179.621 156.404 179.468 156.29 179.343 156.148C179.219 156.006 179.127 155.839 179.073 155.658C179.019 155.477 179.004 155.287 179.03 155.1L179.42 152.19L177 154C176.852 154.113 176.681 154.194 176.499 154.237C176.317 154.279 176.128 154.283 175.944 154.247C175.761 154.211 175.587 154.136 175.435 154.028C175.282 153.92 175.155 153.781 175.06 153.62V153.56C174.966 153.398 174.907 153.217 174.888 153.031C174.869 152.844 174.89 152.655 174.95 152.477C175.009 152.3 175.106 152.136 175.234 151.999C175.362 151.861 175.517 151.753 175.69 151.68L178.42 150.54L175.69 149.39C175.517 149.317 175.362 149.209 175.234 149.071C175.106 148.934 175.009 148.77 174.95 148.592C174.89 148.415 174.869 148.226 174.888 148.039C174.907 147.853 174.966 147.672 175.06 147.51V147.46C175.148 147.292 175.27 147.146 175.419 147.03C175.569 146.914 175.741 146.831 175.925 146.787C176.109 146.744 176.3 146.74 176.486 146.777C176.671 146.814 176.846 146.89 177 147L179.38 148.81L178.99 145.9C178.964 145.713 178.979 145.524 179.033 145.343C179.087 145.163 179.179 144.996 179.304 144.855C179.428 144.714 179.581 144.601 179.753 144.524C179.925 144.447 180.112 144.408 180.3 144.41C180.487 144.41 180.673 144.449 180.843 144.527C181.014 144.604 181.166 144.717 181.29 144.859C181.413 145 181.504 145.166 181.558 145.346C181.611 145.525 181.626 145.714 181.6 145.9L181.21 148.81L183.59 147C183.739 146.887 183.911 146.807 184.093 146.765C184.275 146.723 184.464 146.721 184.648 146.757C184.831 146.794 185.005 146.87 185.157 146.979C185.309 147.088 185.436 147.228 185.53 147.39V147.44C185.624 147.602 185.683 147.783 185.702 147.969C185.721 148.156 185.7 148.345 185.64 148.522C185.581 148.7 185.484 148.864 185.356 149.001C185.228 149.139 185.073 149.247 184.9 149.32L182.17 150.47L184.9 151.61C185.073 151.683 185.228 151.791 185.356 151.929C185.484 152.066 185.581 152.23 185.64 152.407C185.7 152.585 185.721 152.774 185.702 152.961C185.683 153.147 185.624 153.328 185.53 153.49V153.55C185.441 153.711 185.319 153.851 185.173 153.962C185.026 154.073 184.858 154.153 184.679 154.195C184.501 154.237 184.315 154.242 184.134 154.208C183.953 154.175 183.782 154.104 183.63 154Z" fill="#263238"/>
<path d="M204.84 154L202.46 152.19L202.85 155.1C202.874 155.287 202.858 155.476 202.804 155.657C202.749 155.837 202.656 156.003 202.533 156.145C202.409 156.287 202.256 156.401 202.085 156.479C201.914 156.557 201.728 156.599 201.54 156.6C201.352 156.599 201.167 156.558 200.996 156.479C200.825 156.401 200.673 156.287 200.55 156.145C200.427 156.003 200.336 155.836 200.282 155.656C200.229 155.476 200.214 155.286 200.24 155.1L200.62 152.19L198.25 154C198.102 154.114 197.931 154.194 197.749 154.237C197.567 154.279 197.378 154.283 197.194 154.247C197.011 154.211 196.837 154.136 196.685 154.028C196.532 153.92 196.405 153.781 196.31 153.62V153.56C196.216 153.398 196.157 153.217 196.138 153.031C196.119 152.844 196.14 152.655 196.2 152.477C196.259 152.3 196.356 152.136 196.484 151.999C196.612 151.861 196.767 151.753 196.94 151.68L199.66 150.54L196.94 149.39C196.767 149.317 196.612 149.209 196.484 149.071C196.356 148.934 196.259 148.77 196.2 148.592C196.14 148.415 196.119 148.226 196.138 148.039C196.157 147.853 196.216 147.672 196.31 147.51V147.46C196.404 147.298 196.531 147.158 196.683 147.049C196.835 146.94 197.009 146.864 197.192 146.828C197.376 146.791 197.565 146.793 197.747 146.835C197.929 146.877 198.101 146.957 198.25 147.07L200.62 148.88L200.24 145.97C200.214 145.784 200.229 145.595 200.282 145.416C200.336 145.236 200.427 145.07 200.55 144.929C200.674 144.788 200.826 144.674 200.997 144.597C201.167 144.52 201.353 144.48 201.54 144.48C201.728 144.48 201.913 144.52 202.085 144.597C202.256 144.674 202.408 144.787 202.532 144.928C202.656 145.069 202.749 145.235 202.804 145.415C202.858 145.595 202.874 145.784 202.85 145.97L202.46 148.88L204.84 147.07C204.988 146.957 205.159 146.877 205.341 146.835C205.522 146.794 205.711 146.791 205.893 146.828C206.076 146.865 206.249 146.94 206.4 147.049C206.551 147.158 206.677 147.298 206.77 147.46V147.51C206.864 147.672 206.923 147.853 206.942 148.039C206.961 148.226 206.94 148.415 206.88 148.592C206.821 148.77 206.724 148.934 206.596 149.071C206.468 149.209 206.313 149.317 206.14 149.39L203.41 150.54L206.14 151.68C206.313 151.753 206.468 151.861 206.596 151.999C206.724 152.136 206.821 152.3 206.88 152.477C206.94 152.655 206.961 152.844 206.942 153.031C206.923 153.217 206.864 153.398 206.77 153.56V153.62C206.676 153.781 206.55 153.92 206.398 154.028C206.246 154.136 206.074 154.21 205.891 154.246C205.708 154.282 205.52 154.279 205.339 154.236C205.158 154.194 204.988 154.113 204.84 154Z" fill="#263238"/>
<path d="M226 154L223.63 152.19L224.02 155.1C224.044 155.287 224.028 155.476 223.974 155.657C223.919 155.837 223.826 156.003 223.703 156.145C223.579 156.287 223.426 156.401 223.255 156.479C223.084 156.557 222.898 156.599 222.71 156.6C222.522 156.599 222.336 156.557 222.165 156.479C221.994 156.401 221.841 156.287 221.717 156.145C221.594 156.003 221.501 155.837 221.446 155.657C221.392 155.476 221.376 155.287 221.4 155.1L221.79 152.19L219.46 154C219.312 154.114 219.141 154.194 218.959 154.237C218.777 154.279 218.588 154.283 218.404 154.247C218.221 154.211 218.047 154.136 217.895 154.028C217.742 153.92 217.615 153.781 217.52 153.62V153.56C217.426 153.398 217.367 153.217 217.348 153.031C217.329 152.844 217.35 152.655 217.41 152.477C217.469 152.3 217.566 152.136 217.694 151.999C217.822 151.861 217.977 151.753 218.15 151.68L220.88 150.54L218.15 149.39C217.977 149.317 217.822 149.209 217.694 149.071C217.566 148.934 217.469 148.77 217.41 148.592C217.35 148.415 217.329 148.226 217.348 148.039C217.367 147.853 217.426 147.672 217.52 147.51V147.46C217.614 147.298 217.741 147.158 217.893 147.049C218.045 146.94 218.219 146.864 218.402 146.828C218.586 146.791 218.775 146.793 218.957 146.835C219.14 146.877 219.311 146.957 219.46 147.07L221.83 148.88L221.44 145.97C221.416 145.784 221.432 145.595 221.486 145.415C221.541 145.235 221.634 145.069 221.758 144.928C221.882 144.787 222.034 144.674 222.205 144.597C222.377 144.52 222.562 144.48 222.75 144.48C222.938 144.48 223.123 144.52 223.295 144.597C223.466 144.674 223.618 144.787 223.742 144.928C223.866 145.069 223.959 145.235 224.014 145.415C224.068 145.595 224.084 145.784 224.06 145.97L223.67 148.88L226 147C226.149 146.887 226.321 146.807 226.503 146.765C226.685 146.723 226.874 146.721 227.058 146.758C227.241 146.794 227.415 146.87 227.567 146.979C227.719 147.088 227.846 147.228 227.94 147.39V147.44C228.036 147.601 228.097 147.781 228.117 147.968C228.138 148.154 228.118 148.343 228.059 148.522C228 148.7 227.904 148.863 227.776 149.001C227.649 149.139 227.493 149.248 227.32 149.32L224.59 150.47L227.31 151.61C227.483 151.683 227.638 151.791 227.766 151.929C227.894 152.066 227.991 152.23 228.05 152.407C228.11 152.585 228.131 152.774 228.112 152.961C228.093 153.147 228.034 153.328 227.94 153.49V153.55C227.851 153.717 227.728 153.862 227.579 153.977C227.429 154.092 227.256 154.174 227.072 154.217C226.889 154.259 226.698 154.262 226.513 154.225C226.328 154.187 226.153 154.111 226 154Z" fill="#263238"/>
<path d="M247.25 154L244.87 152.19L245.26 155.1C245.286 155.286 245.271 155.476 245.218 155.656C245.164 155.836 245.073 156.003 244.95 156.145C244.827 156.287 244.675 156.401 244.504 156.479C244.333 156.558 244.148 156.599 243.96 156.6C243.771 156.6 243.585 156.56 243.413 156.482C243.241 156.404 243.088 156.29 242.963 156.148C242.839 156.006 242.747 155.839 242.693 155.658C242.639 155.477 242.624 155.287 242.65 155.1L243.04 152.19L240.66 154C240.512 154.114 240.341 154.194 240.159 154.237C239.977 154.279 239.788 154.283 239.604 154.247C239.421 154.211 239.247 154.136 239.095 154.028C238.942 153.92 238.815 153.781 238.72 153.62V153.56C238.626 153.398 238.567 153.217 238.548 153.031C238.529 152.844 238.55 152.655 238.61 152.478C238.669 152.3 238.766 152.136 238.894 151.999C239.022 151.861 239.177 151.753 239.35 151.68L242.08 150.54L239.35 149.39C239.177 149.317 239.022 149.209 238.894 149.071C238.766 148.934 238.669 148.77 238.61 148.593C238.55 148.415 238.529 148.226 238.548 148.039C238.567 147.853 238.626 147.672 238.72 147.51V147.46C238.814 147.298 238.941 147.158 239.093 147.049C239.245 146.94 239.419 146.864 239.602 146.828C239.786 146.791 239.975 146.793 240.157 146.835C240.339 146.877 240.511 146.957 240.66 147.07L243.04 148.88L242.65 145.97C242.624 145.784 242.639 145.594 242.693 145.413C242.747 145.233 242.839 145.066 242.964 144.925C243.088 144.784 243.241 144.671 243.413 144.594C243.585 144.517 243.772 144.478 243.96 144.48C244.147 144.48 244.333 144.52 244.503 144.597C244.674 144.674 244.826 144.788 244.95 144.929C245.073 145.07 245.164 145.236 245.218 145.416C245.271 145.595 245.286 145.784 245.26 145.97L244.87 148.88L247.25 147.07C247.399 146.957 247.571 146.877 247.753 146.835C247.935 146.793 248.124 146.791 248.308 146.828C248.491 146.864 248.665 146.94 248.817 147.049C248.969 147.158 249.096 147.298 249.19 147.46V147.51C249.284 147.672 249.343 147.853 249.362 148.039C249.381 148.226 249.36 148.415 249.3 148.593C249.241 148.77 249.144 148.934 249.016 149.071C248.888 149.209 248.733 149.317 248.56 149.39L245.84 150.54L248.56 151.68C248.733 151.753 248.888 151.861 249.016 151.999C249.144 152.136 249.241 152.3 249.3 152.478C249.36 152.655 249.381 152.844 249.362 153.031C249.343 153.217 249.284 153.398 249.19 153.56V153.62C249.095 153.781 248.968 153.92 248.815 154.028C248.663 154.136 248.489 154.211 248.306 154.247C248.122 154.283 247.933 154.279 247.751 154.237C247.569 154.194 247.398 154.114 247.25 154Z" fill="#263238"/>
<path d="M268.46 154L266.08 152.19L266.47 155.1C266.494 155.287 266.478 155.476 266.424 155.657C266.369 155.837 266.276 156.003 266.153 156.145C266.029 156.287 265.876 156.401 265.705 156.479C265.534 156.557 265.348 156.599 265.16 156.6C264.972 156.599 264.787 156.558 264.616 156.479C264.445 156.401 264.293 156.287 264.17 156.145C264.047 156.003 263.956 155.836 263.902 155.656C263.849 155.476 263.834 155.286 263.86 155.1L264.24 152.19L261.87 154C261.722 154.114 261.551 154.194 261.369 154.237C261.187 154.279 260.998 154.283 260.814 154.247C260.631 154.211 260.457 154.136 260.305 154.028C260.152 153.92 260.025 153.781 259.93 153.62V153.56C259.836 153.398 259.777 153.217 259.758 153.031C259.739 152.844 259.76 152.655 259.82 152.477C259.879 152.3 259.976 152.136 260.104 151.999C260.232 151.861 260.387 151.753 260.56 151.68L263.28 150.54L260.56 149.39C260.387 149.317 260.232 149.209 260.104 149.071C259.976 148.934 259.879 148.77 259.82 148.592C259.76 148.415 259.739 148.226 259.758 148.039C259.777 147.853 259.836 147.672 259.93 147.51V147.46C260.024 147.298 260.151 147.158 260.303 147.049C260.455 146.94 260.629 146.864 260.812 146.828C260.995 146.791 261.185 146.793 261.367 146.835C261.549 146.877 261.721 146.957 261.87 147.07L264.24 148.88L263.86 145.97C263.834 145.784 263.849 145.595 263.902 145.416C263.956 145.236 264.047 145.07 264.17 144.929C264.294 144.788 264.446 144.674 264.617 144.597C264.787 144.52 264.973 144.48 265.16 144.48C265.348 144.48 265.533 144.52 265.705 144.597C265.876 144.674 266.028 144.787 266.152 144.928C266.276 145.069 266.369 145.235 266.424 145.415C266.478 145.595 266.494 145.784 266.47 145.97L266.08 148.88L268.46 147.07C268.608 146.957 268.779 146.877 268.961 146.835C269.142 146.794 269.331 146.791 269.513 146.828C269.696 146.865 269.869 146.94 270.02 147.049C270.171 147.158 270.297 147.298 270.39 147.46V147.51C270.484 147.672 270.543 147.853 270.562 148.039C270.581 148.226 270.56 148.415 270.5 148.592C270.441 148.77 270.344 148.934 270.216 149.071C270.088 149.209 269.933 149.317 269.76 149.39L267.03 150.54L269.76 151.68C269.933 151.753 270.088 151.861 270.216 151.999C270.344 152.136 270.441 152.3 270.5 152.477C270.56 152.655 270.581 152.844 270.562 153.031C270.543 153.217 270.484 153.398 270.39 153.56V153.62C270.296 153.781 270.17 153.92 270.018 154.028C269.866 154.136 269.693 154.21 269.511 154.246C269.328 154.282 269.14 154.279 268.959 154.236C268.778 154.194 268.608 154.113 268.46 154Z" fill="#263238"/>
<path d="M303.91 150.5C303.91 150.5 299.59 155.89 294.26 155.89C288.93 155.89 284.62 150.5 284.62 150.5C284.62 150.5 288.93 145.1 294.26 145.1C299.59 145.1 303.91 150.5 303.91 150.5Z" fill="white" stroke="#263238" stroke-linecap="round" stroke-linejoin="round"/>
<path d="M297.58 150.5C297.58 151.157 297.385 151.798 297.02 152.344C296.656 152.89 296.137 153.316 295.531 153.567C294.924 153.818 294.256 153.884 293.612 153.756C292.968 153.628 292.377 153.312 291.912 152.848C291.448 152.383 291.132 151.792 291.004 151.148C290.876 150.504 290.941 149.836 291.193 149.229C291.444 148.623 291.87 148.104 292.416 147.739C292.961 147.375 293.603 147.18 294.26 147.18C295.141 147.18 295.985 147.53 296.608 148.152C297.23 148.775 297.58 149.619 297.58 150.5Z" fill="#999999" stroke="#263238" stroke-linecap="round" stroke-linejoin="round"/>
<path d="M194.48 183.62H185.71C183.517 183.62 181.74 185.397 181.74 187.59V198.89C181.74 201.082 183.517 202.86 185.71 202.86H194.48C196.673 202.86 198.45 201.082 198.45 198.89V187.59C198.45 185.397 196.673 183.62 194.48 183.62Z" fill="#172554" stroke="#263238" stroke-linecap="round" stroke-linejoin="round"/>
<path d="M213.12 183.62H204.35C202.157 183.62 200.38 185.397 200.38 187.59V198.89C200.38 201.082 202.157 202.86 204.35 202.86H213.12C215.313 202.86 217.09 201.082 217.09 198.89V187.59C217.09 185.397 215.313 183.62 213.12 183.62Z" fill="#172554" stroke="#263238" stroke-linecap="round" stroke-linejoin="round"/>
<path d="M231.75 183.62H222.98C220.787 183.62 219.01 185.397 219.01 187.59V198.89C219.01 201.082 220.787 202.86 222.98 202.86H231.75C233.943 202.86 235.72 201.082 235.72 198.89V187.59C235.72 185.397 233.943 183.62 231.75 183.62Z" fill="#172554" stroke="#263238" stroke-linecap="round" stroke-linejoin="round"/>
<path d="M250.38 183.62H241.61C239.417 183.62 237.64 185.397 237.64 187.59V198.89C237.64 201.082 239.417 202.86 241.61 202.86H250.38C252.573 202.86 254.35 201.082 254.35 198.89V187.59C254.35 185.397 252.573 183.62 250.38 183.62Z" fill="#172554" stroke="#263238" stroke-linecap="round" stroke-linejoin="round"/>
<path d="M269.02 183.62H260.25C258.057 183.62 256.28 185.397 256.28 187.59V198.89C256.28 201.082 258.057 202.86 260.25 202.86H269.02C271.213 202.86 272.99 201.082 272.99 198.89V187.59C272.99 185.397 271.213 183.62 269.02 183.62Z" fill="#172554" stroke="#263238" stroke-linecap="round" stroke-linejoin="round"/>
<path d="M287.65 183.62H278.88C276.687 183.62 274.91 185.397 274.91 187.59V198.89C274.91 201.082 276.687 202.86 278.88 202.86H287.65C289.843 202.86 291.62 201.082 291.62 198.89V187.59C291.62 185.397 289.843 183.62 287.65 183.62Z" fill="#172554" stroke="#263238" stroke-linecap="round" stroke-linejoin="round"/>
<path d="M203.8 205.92H195.03C192.837 205.92 191.06 207.697 191.06 209.89V221.19C191.06 223.382 192.837 225.16 195.03 225.16H203.8C205.993 225.16 207.77 223.382 207.77 221.19V209.89C207.77 207.697 205.993 205.92 203.8 205.92Z" fill="#172554" stroke="#263238" stroke-linecap="round" stroke-linejoin="round"/>
<path d="M222.43 205.92H213.66C211.467 205.92 209.69 207.697 209.69 209.89V221.19C209.69 223.382 211.467 225.16 213.66 225.16H222.43C224.623 225.16 226.4 223.382 226.4 221.19V209.89C226.4 207.697 224.623 205.92 222.43 205.92Z" fill="#172554" stroke="#263238" stroke-linecap="round" stroke-linejoin="round"/>
<path d="M241.07 205.92H232.3C230.107 205.92 228.33 207.697 228.33 209.89V221.19C228.33 223.382 230.107 225.16 232.3 225.16H241.07C243.263 225.16 245.04 223.382 245.04 221.19V209.89C245.04 207.697 243.263 205.92 241.07 205.92Z" fill="#172554" stroke="#263238" stroke-linecap="round" stroke-linejoin="round"/>
<path d="M259.7 205.92H250.93C248.737 205.92 246.96 207.697 246.96 209.89V221.19C246.96 223.382 248.737 225.16 250.93 225.16H259.7C261.893 225.16 263.67 223.382 263.67 221.19V209.89C263.67 207.697 261.893 205.92 259.7 205.92Z" fill="#172554" stroke="#263238" stroke-linecap="round" stroke-linejoin="round"/>
<path d="M278.33 205.92H269.56C267.367 205.92 265.59 207.697 265.59 209.89V221.19C265.59 223.382 267.367 225.16 269.56 225.16H278.33C280.523 225.16 282.3 223.382 282.3 221.19V209.89C282.3 207.697 280.523 205.92 278.33 205.92Z" fill="#172554" stroke="#263238" stroke-linecap="round" stroke-linejoin="round"/>
<path d="M194.48 228.22H185.71C183.517 228.22 181.74 229.997 181.74 232.19V243.49C181.74 245.683 183.517 247.46 185.71 247.46H194.48C196.673 247.46 198.45 245.683 198.45 243.49V232.19C198.45 229.997 196.673 228.22 194.48 228.22Z" fill="#172554" stroke="#263238" stroke-linecap="round" stroke-linejoin="round"/>
<path d="M213.12 228.22H204.35C202.157 228.22 200.38 229.997 200.38 232.19V243.49C200.38 245.683 202.157 247.46 204.35 247.46H213.12C215.313 247.46 217.09 245.683 217.09 243.49V232.19C217.09 229.997 215.313 228.22 213.12 228.22Z" fill="#172554" stroke="#263238" stroke-linecap="round" stroke-linejoin="round"/>
<path d="M231.75 228.22H222.98C220.787 228.22 219.01 229.997 219.01 232.19V243.49C219.01 245.683 220.787 247.46 222.98 247.46H231.75C233.943 247.46 235.72 245.683 235.72 243.49V232.19C235.72 229.997 233.943 228.22 231.75 228.22Z" fill="#172554" stroke="#263238" stroke-linecap="round" stroke-linejoin="round"/>
<path d="M250.38 228.22H241.61C239.417 228.22 237.64 229.997 237.64 232.19V243.49C237.64 245.683 239.417 247.46 241.61 247.46H250.38C252.573 247.46 254.35 245.683 254.35 243.49V232.19C254.35 229.997 252.573 228.22 250.38 228.22Z" fill="#172554" stroke="#263238" stroke-linecap="round" stroke-linejoin="round"/>
<path d="M269.02 228.22H260.25C258.057 228.22 256.28 229.997 256.28 232.19V243.49C256.28 245.683 258.057 247.46 260.25 247.46H269.02C271.213 247.46 272.99 245.683 272.99 243.49V232.19C272.99 229.997 271.213 228.22 269.02 228.22Z" fill="#172554" stroke="#263238" stroke-linecap="round" stroke-linejoin="round"/>
<path d="M287.65 228.22H278.88C276.687 228.22 274.91 229.997 274.91 232.19V243.49C274.91 245.683 276.687 247.46 278.88 247.46H287.65C289.843 247.46 291.62 245.683 291.62 243.49V232.19C291.62 229.997 289.843 228.22 287.65 228.22Z" fill="#172554" stroke="#263238" stroke-linecap="round" stroke-linejoin="round"/>
<path d="M203.8 250.52H195.03C192.837 250.52 191.06 252.297 191.06 254.49V265.79C191.06 267.983 192.837 269.76 195.03 269.76H203.8C205.993 269.76 207.77 267.983 207.77 265.79V254.49C207.77 252.297 205.993 250.52 203.8 250.52Z" fill="#172554" stroke="#263238" stroke-linecap="round" stroke-linejoin="round"/>
<path d="M222.43 250.52H213.66C211.467 250.52 209.69 252.297 209.69 254.49V265.79C209.69 267.983 211.467 269.76 213.66 269.76H222.43C224.623 269.76 226.4 267.983 226.4 265.79V254.49C226.4 252.297 224.623 250.52 222.43 250.52Z" fill="#172554" stroke="#263238" stroke-linecap="round" stroke-linejoin="round"/>
<path d="M241.07 250.52H232.3C230.107 250.52 228.33 252.297 228.33 254.49V265.79C228.33 267.983 230.107 269.76 232.3 269.76H241.07C243.263 269.76 245.04 267.983 245.04 265.79V254.49C245.04 252.297 243.263 250.52 241.07 250.52Z" fill="#172554" stroke="#263238" stroke-linecap="round" stroke-linejoin="round"/>
<path d="M259.7 250.52H250.93C248.737 250.52 246.96 252.297 246.96 254.49V265.79C246.96 267.983 248.737 269.76 250.93 269.76H259.7C261.893 269.76 263.67 267.983 263.67 265.79V254.49C263.67 252.297 261.893 250.52 259.7 250.52Z" fill="#172554" stroke="#263238" stroke-linecap="round" stroke-linejoin="round"/>
<path d="M278.33 250.52H269.56C267.367 250.52 265.59 252.297 265.59 254.49V265.79C265.59 267.983 267.367 269.76 269.56 269.76H278.33C280.523 269.76 282.3 267.983 282.3 265.79V254.49C282.3 252.297 280.523 250.52 278.33 250.52Z" fill="#172554" stroke="#263238" stroke-linecap="round" stroke-linejoin="round"/>
<path d="M261.037 107.298C268.253 93.7086 263.087 76.8421 249.498 69.6256C235.908 62.4091 219.042 67.5754 211.825 81.1648C204.609 94.7541 209.775 111.621 223.365 118.837C236.954 126.054 253.82 120.887 261.037 107.298Z" fill="white" stroke="#263238" stroke-linecap="round" stroke-linejoin="round"/>
<path d="M236.43 122.08C242.519 122.093 248.442 120.096 253.28 116.4C246.75 113.976 239.845 112.717 232.88 112.68C227.891 112.718 222.945 113.615 218.26 115.33C223.309 119.689 229.759 122.085 236.43 122.08Z" fill="#172554" stroke="#263238" stroke-linecap="round" stroke-linejoin="round"/>
<path d="M228.93 106.65C228.93 106.65 228.69 97.5699 226.14 90.9299C223.59 84.2899 222.14 74.4799 231.87 73.1199C241.6 71.7599 245.45 73.3699 251.02 72.9299C261.72 72.0999 249.93 84.3899 249.93 84.3899L235.6 89.9999C235.6 89.9999 230.63 107.09 228.93 106.65Z" fill="#263238" stroke="#263238" stroke-linecap="round" stroke-linejoin="round"/>
<path d="M228.28 109.29L230.81 99L237.81 101.12L239.92 109.5C240.117 110.302 240.488 111.051 241.007 111.693C241.525 112.336 242.178 112.857 242.92 113.22C243.976 113.71 244.98 114.303 245.92 114.99C245.92 114.99 237.58 125.68 221.57 114.99C222.629 114.219 223.778 113.577 224.99 113.08C225.799 112.753 226.519 112.239 227.091 111.581C227.663 110.922 228.07 110.137 228.28 109.29Z" fill="white"/>
<mask id="mask3_396_4721" style="mask-type:luminance" maskUnits="userSpaceOnUse" x="221" y="99" width="25" height="21">
<path d="M228.28 109.29L230.81 99L237.81 101.12L239.92 109.5C240.117 110.302 240.488 111.051 241.007 111.693C241.525 112.336 242.178 112.857 242.92 113.22C243.976 113.71 244.98 114.303 245.92 114.99C245.92 114.99 237.58 125.68 221.57 114.99C222.629 114.219 223.778 113.577 224.99 113.08C225.799 112.753 226.519 112.239 227.091 111.581C227.663 110.922 228.07 110.137 228.28 109.29Z" fill="white"/>
</mask>
<g mask="url(#mask3_396_4721)">
<path d="M250.15 84.7099L251.07 90.8399C251.162 91.4871 251.107 92.1467 250.91 92.7699L250.38 94.4399L250.69 98.4399C250.705 98.6463 250.705 98.8535 250.69 99.0599C250.55 101.06 249.56 110.88 243.69 111.33C238.46 111.73 233.24 106.33 231.39 103.77C230.928 103.132 230.588 102.413 230.39 101.65L229.6 98.5399C228.855 98.5348 228.13 98.2941 227.531 97.8522C226.931 97.4104 226.486 96.79 226.26 96.0799C225.47 93.5699 224.16 91.9499 226.7 90.6999C229.24 89.4499 230.12 92.9999 230.12 92.9999C230.12 92.9999 230.78 88.8699 231.48 87.6899C232.18 86.5099 234.34 85.3899 235 84.3799C235.373 83.5782 235.674 82.7449 235.9 81.8899C235.9 81.8899 243.63 83.3799 249.5 82.1899L250.15 84.7099Z" fill="#263238" stroke="#263238" stroke-linecap="round" stroke-linejoin="round"/>
</g>
<path d="M228.28 109.29L230.81 99L237.81 101.12L239.92 109.5C240.117 110.302 240.488 111.051 241.007 111.693C241.525 112.336 242.178 112.857 242.92 113.22C243.976 113.71 244.98 114.303 245.92 114.99C245.92 114.99 237.58 125.68 221.57 114.99C222.629 114.219 223.778 113.577 224.99 113.08C225.799 112.753 226.519 112.239 227.091 111.581C227.663 110.922 228.07 110.137 228.28 109.29Z" stroke="#263238" stroke-linecap="round" stroke-linejoin="round"/>
<path d="M250.15 83.62L251.07 89.75C251.162 90.3972 251.107 91.0568 250.91 91.68L250.38 93.35L250.69 97.35C250.705 97.5598 250.705 97.7703 250.69 97.98C250.55 99.98 249.56 109.8 243.69 110.25C238.46 110.65 233.24 105.25 231.39 102.69C230.93 102.051 230.591 101.332 230.39 100.57L229.6 97.46C228.851 97.4592 228.123 97.2205 227.519 96.7783C226.915 96.3361 226.467 95.7134 226.24 95C225.45 92.49 224.14 90.87 226.68 89.62C229.22 88.37 230.12 91.9 230.12 91.9C230.12 91.9 230.78 87.77 231.48 86.59C232.18 85.41 234.34 84.29 235 83.28C235.373 82.4783 235.674 81.645 235.9 80.79C235.9 80.79 243.63 82.28 249.5 81.09L250.15 83.62Z" fill="white" stroke="#263238" stroke-linecap="round" stroke-linejoin="round"/>
<path d="M246 93.8501L247.92 98.4901C247.99 98.6411 248.021 98.8072 248.011 98.9733C248 99.1394 247.948 99.3003 247.86 99.4413C247.772 99.5823 247.649 99.6991 247.504 99.7809C247.359 99.8628 247.196 99.9072 247.03 99.9101L244.64 100.07" stroke="#263238" stroke-width="0.75" stroke-linecap="round" stroke-linejoin="round"/>
<path d="M240.05 101.8C240.242 102.195 240.518 102.543 240.86 102.82C241.201 103.096 241.599 103.295 242.025 103.401C242.452 103.506 242.896 103.517 243.327 103.433C243.758 103.348 244.165 103.169 244.52 102.91" stroke="#263238" stroke-width="0.75" stroke-linecap="round" stroke-linejoin="round"/>
<path d="M240 76.2999C229.64 75.1199 227.73 79.2099 227.73 79.2099" stroke="#7F7F7F" stroke-width="0.75" stroke-linecap="round" stroke-linejoin="round"/>
<path d="M251.37 75.1699C248.396 75.9135 245.345 76.3061 242.28 76.3399" stroke="#7F7F7F" stroke-width="0.75" stroke-linecap="round" stroke-linejoin="round"/>
<path d="M242 79.28C244.95 79.28 250.91 78.73 253.29 76.01" stroke="#7F7F7F" stroke-width="0.75" stroke-linecap="round" stroke-linejoin="round"/>
<path d="M237.64 78.78C238.405 78.9549 239.18 79.0818 239.96 79.16" stroke="#7F7F7F" stroke-width="0.75" stroke-linecap="round" stroke-linejoin="round"/>
<path d="M241.84 93.18C241.84 93.98 241.52 94.62 241.12 94.62C240.72 94.62 240.4 93.98 240.4 93.18C240.4 92.38 240.73 91.74 241.12 91.74C241.51 91.74 241.84 92.39 241.84 93.18Z" fill="#263238"/>
<path d="M248.62 93C248.62 93.69 248.34 94.25 248 94.25C247.66 94.25 247.37 93.69 247.37 93C247.37 92.31 247.65 91.75 248 91.75C248.35 91.75 248.62 92.3 248.62 93Z" fill="#263238"/>
<path d="M238.77 91.06C238.77 91.06 239.63 88.49 241.12 88.56C241.58 88.6036 242.021 88.7643 242.401 89.0269C242.781 89.2896 243.087 89.6452 243.29 90.06" stroke="#263238" stroke-width="0.75" stroke-linecap="round" stroke-linejoin="round"/>
<path d="M249.09 90.0001C248.81 89.3101 248.38 88.5301 247.81 88.5701C246.81 88.6301 246.32 90.0701 246.32 90.0701" stroke="#263238" stroke-width="0.75" stroke-linecap="round" stroke-linejoin="round"/>
<path d="M94.09 211.42C96.09 206.56 91.2 191.86 89.01 185.83C88.8827 185.481 88.6718 185.169 88.3958 184.921C88.1197 184.672 87.787 184.495 87.4267 184.406C87.0664 184.316 86.6896 184.316 86.3293 184.405C85.969 184.495 85.6361 184.672 85.36 184.92C83.36 186.69 80.97 190.13 80.57 196.51C80.57 196.51 65.31 223.38 65.31 235.64C65.31 247.13 88.03 271.06 88.03 271.06C90.5917 270.264 92.757 268.528 94.09 266.2C94.09 266.2 85.6 245.2 79.01 236.2C79 236.21 91.84 216.8 94.09 211.42Z" fill="#263238"/>
<mask id="mask4_396_4721" style="mask-type:luminance" maskUnits="userSpaceOnUse" x="65" y="184" width="30" height="88">
<path d="M94.09 211.42C96.09 206.56 91.2 191.86 89.01 185.83C88.8827 185.481 88.6718 185.169 88.3958 184.921C88.1197 184.672 87.787 184.495 87.4267 184.406C87.0664 184.316 86.6896 184.316 86.3293 184.405C85.969 184.495 85.6361 184.672 85.36 184.92C83.36 186.69 80.97 190.13 80.57 196.51C80.57 196.51 65.31 223.38 65.31 235.64C65.31 247.13 88.03 271.06 88.03 271.06C90.5917 270.264 92.757 268.528 94.09 266.2C94.09 266.2 85.6 245.2 79.01 236.2C79 236.21 91.84 216.8 94.09 211.42Z" fill="white"/>
</mask>
<g mask="url(#mask4_396_4721)">
<path opacity="0.2" d="M91.54 219.28C91.54 219.28 84.27 203.79 81.54 205.18C78.81 206.57 71.73 232.69 74.44 236.85C77.15 241.01 91.93 270.38 95.63 269.79C99.33 269.2 91.54 219.28 91.54 219.28Z" fill="black"/>
</g>
<path d="M94.09 211.42C96.09 206.56 91.2 191.86 89.01 185.83C88.8827 185.481 88.6718 185.169 88.3958 184.921C88.1197 184.672 87.787 184.495 87.4267 184.406C87.0664 184.316 86.6896 184.316 86.3293 184.405C85.969 184.495 85.6361 184.672 85.36 184.92C83.36 186.69 80.97 190.13 80.57 196.51C80.57 196.51 65.31 223.38 65.31 235.64C65.31 247.13 88.03 271.06 88.03 271.06C90.5917 270.264 92.757 268.528 94.09 266.2C94.09 266.2 85.6 245.2 79.01 236.2C79 236.21 91.84 216.8 94.09 211.42Z" stroke="#263238" stroke-linecap="round" stroke-linejoin="round"/>
<path d="M92.16 264.3L95.59 269.79C95.59 269.79 106.27 273.13 107.38 276.66C108.49 280.19 103.02 285.11 99.77 284.12C96.52 283.13 91.22 273.33 91.22 273.33L86.9 268.33L92.16 264.3Z" fill="white" stroke="#263238" stroke-linecap="round" stroke-linejoin="round"/>
<path d="M85.43 269.67L87.74 272.33C90.9885 271.422 93.7655 269.303 95.5 266.41L94.1 263.08C94.1 263.08 92.13 267.7 85.43 269.67Z" fill="#172554" stroke="#263238" stroke-linecap="round" stroke-linejoin="round"/>
<path d="M99.12 416.85L96.12 429.3C96.0203 429.717 96.0164 430.152 96.1086 430.57C96.2008 430.989 96.3866 431.382 96.6522 431.719C96.9178 432.055 97.2562 432.328 97.642 432.515C98.0279 432.702 98.4511 432.8 98.88 432.8H116.4C116.815 432.8 117.225 432.71 117.601 432.535C117.978 432.36 118.311 432.105 118.579 431.788C118.846 431.471 119.042 431.099 119.151 430.699C119.26 430.298 119.28 429.879 119.21 429.47C119.074 428.534 118.745 427.637 118.242 426.836C117.739 426.035 117.074 425.349 116.29 424.82C112.29 422.22 110.39 414.08 110.39 414.08L99.12 416.85Z" fill="#263238" stroke="#263238" stroke-linecap="round" stroke-linejoin="round"/>
<path d="M142.29 418.93C142.29 418.93 139.46 423 139 430.26C138.985 430.588 139.037 430.916 139.152 431.224C139.268 431.531 139.445 431.812 139.672 432.05C139.899 432.287 140.172 432.476 140.474 432.605C140.776 432.734 141.101 432.8 141.43 432.8H172.5C173.106 432.803 173.699 432.618 174.195 432.269C174.691 431.92 175.066 431.426 175.269 430.854C175.471 430.282 175.49 429.662 175.324 429.079C175.157 428.496 174.814 427.979 174.34 427.6C173.018 426.616 171.451 426.014 169.81 425.86C162.19 424.86 155.44 421.36 154.22 416.86L142.29 418.93Z" fill="#263238" stroke="#263238" stroke-linecap="round" stroke-linejoin="round"/>
<path d="M94.09 266.2C94.09 266.2 90.57 280.76 91.96 312.2L92.86 347.8C92.86 347.8 87.8 372.8 97.51 418.06C97.51 418.06 100.51 424.76 112.6 416.38L114 347.33L126.65 271.06L94.09 266.2Z" fill="#999999"/>
<mask id="mask5_396_4721" style="mask-type:luminance" maskUnits="userSpaceOnUse" x="91" y="266" width="36" height="155">
<path d="M94.09 266.2C94.09 266.2 90.57 280.76 91.96 312.2L92.86 347.8C92.86 347.8 87.8 372.8 97.51 418.06C97.51 418.06 100.51 424.76 112.6 416.38L114 347.33L126.65 271.06L94.09 266.2Z" fill="white"/>
</mask>
<g mask="url(#mask5_396_4721)">
<path opacity="0.2" d="M119.25 298.33C119.25 298.33 114.09 318.9 112.01 330.92C109.93 342.94 97.56 342.02 96.07 349.92C94.58 357.82 109.07 348.53 107.66 376.92C106.25 405.31 101.18 420.83 109.14 420.6C117.1 420.37 117.33 398 117.33 398L122.18 329.82V320.34L123.34 302.34L119.25 298.33Z" fill="black"/>
</g>
<path d="M94.09 266.2C94.09 266.2 90.57 280.76 91.96 312.2L92.86 347.8C92.86 347.8 87.8 372.8 97.51 418.06C97.51 418.06 100.51 424.76 112.6 416.38L114 347.33L126.65 271.06L94.09 266.2Z" stroke="#263238" stroke-linecap="round" stroke-linejoin="round"/>
<path d="M96.07 355.52C95.5321 356.231 95.0346 356.973 94.58 357.74" stroke="#263238" stroke-linecap="round" stroke-linejoin="round"/>
<path d="M96.7 347.68C96.7 347.68 108.3 344.91 109.09 347.68C109.77 350.09 103.5 347.26 97.31 354.02" stroke="#263238" stroke-linecap="round" stroke-linejoin="round"/>
<path d="M116.81 303.33C125.81 317.86 138.48 346.45 138.48 346.45C138.48 346.45 136.57 349.76 138.48 355.31C138.48 355.31 133.48 374.62 140.73 420.79C140.73 420.79 146.97 424.79 155.99 417.79C155.99 417.79 160.49 348.39 158.76 339.03C157.03 329.67 140.76 267.85 140.76 267.85H105" fill="#999999"/>
<mask id="mask6_396_4721" style="mask-type:luminance" maskUnits="userSpaceOnUse" x="105" y="267" width="55" height="155">
<path d="M116.81 303.33C125.81 317.86 138.48 346.45 138.48 346.45C138.48 346.45 136.57 349.76 138.48 355.31C138.48 355.31 133.48 374.62 140.73 420.79C140.73 420.79 146.97 424.79 155.99 417.79C155.99 417.79 160.49 348.39 158.76 339.03C157.03 329.67 140.76 267.85 140.76 267.85H105" fill="white"/>
</mask>
<g mask="url(#mask6_396_4721)">
<path opacity="0.2" d="M114.78 304.34C114.78 304.34 120.23 307.11 130.68 304.34C141.13 301.57 132.47 313.34 135.93 326.18C139.39 339.02 149.11 344.91 147.55 350.45C145.99 355.99 141.37 357.39 140.38 372.3C139.39 387.21 152.47 414.75 147.32 420.39C142.17 426.03 129.69 412.69 129.69 412.69L119.25 342L114.78 304.34Z" fill="black"/>
</g>
<path d="M116.81 303.33C125.81 317.86 138.48 346.45 138.48 346.45C138.48 346.45 136.57 349.76 138.48 355.31C138.48 355.31 133.48 374.62 140.73 420.79C140.73 420.79 146.97 424.79 155.99 417.79C155.99 417.79 160.49 348.39 158.76 339.03C157.03 329.67 140.76 267.85 140.76 267.85H105" stroke="#263238" stroke-linecap="round" stroke-linejoin="round"/>
<path d="M145.1 348.9C149.21 348.28 154.46 347.9 154.25 349.76C153.91 352.88 146.58 349.71 142.12 354.96" stroke="#263238" stroke-linecap="round" stroke-linejoin="round"/>
<path d="M140.38 349.76C140.38 349.76 141.1 349.6 142.21 349.39" stroke="#263238" stroke-linecap="round" stroke-linejoin="round"/>
<path d="M169 169.72L169.65 163.12C169.65 163.12 168.35 156.25 169 153.92C169.65 151.59 175.35 136.82 177.16 137.47C178.97 138.12 174.44 146.15 174.57 148.47C174.57 148.47 176.98 148.6 177.57 150.15C177.57 150.15 179.86 150.54 179.99 152.61C180.549 152.967 181.001 153.469 181.297 154.062C181.593 154.656 181.722 155.319 181.67 155.98C181.42 158.18 177.01 164.14 177.01 164.14L177.27 172.69L169 169.72Z" fill="white" stroke="#263238" stroke-linecap="round" stroke-linejoin="round"/>
<path d="M130.66 158.57C130.66 158.57 128.11 153.57 127.74 151.69C127.47 150.38 128.01 147.69 127.74 146.37C127.12 143.32 122.85 134.93 122.85 134.93C122.679 134.569 122.417 134.259 122.09 134.03L119.59 137.11H112.81L102.45 150.79L107.55 163.07L106.06 164.84C106.97 165.74 107.55 166.26 107.55 166.26L106.06 175.17L120.66 176.65L121 171H125.44C126.039 171 126.614 170.762 127.038 170.338C127.462 169.914 127.7 169.339 127.7 168.74V161L129.7 160.42C129.893 160.375 130.074 160.289 130.231 160.168C130.387 160.046 130.515 159.892 130.607 159.716C130.698 159.541 130.75 159.347 130.759 159.149C130.768 158.951 130.735 158.754 130.66 158.57Z" fill="white" stroke="#263238" stroke-linecap="round" stroke-linejoin="round"/>
<path d="M95.35 154.12C101.23 162.78 107.55 166.26 107.55 166.26L110.04 160.07C110.04 160.07 105.04 159.54 105.79 154.68C106.96 147.51 112.79 153.96 112.79 153.96L114.05 148.42C114.05 148.42 117.16 145.08 116.94 143.91C116.773 143.06 116.553 142.222 116.28 141.4C116.28 141.4 127.53 130.69 126.34 124.72C126.34 124.72 116.97 126.62 105.79 128.72C92.18 131.18 88.71 144.36 95.35 154.12Z" fill="#263238" stroke="#263238" stroke-linecap="round" stroke-linejoin="round"/>
<path d="M125.48 171C125.48 171 117.65 169.67 114.66 166C111.67 162.33 114.05 166.26 115.45 168.51C118.45 173.32 121 171 125.48 171Z" fill="#263238"/>
<path d="M120.66 159.74C121.2 160.351 121.882 160.822 122.645 161.109C123.408 161.397 124.231 161.493 125.04 161.39" stroke="#263238" stroke-width="0.75" stroke-linecap="round" stroke-linejoin="round"/>
<path d="M126.36 150.17C126.36 150.87 126.1 151.43 125.77 151.43C125.44 151.43 125.19 150.87 125.19 150.17C125.19 149.47 125.45 148.91 125.77 148.91C126.09 148.91 126.36 149.48 126.36 150.17Z" fill="#263238"/>
<path d="M126.25 146.49C125.44 146.312 124.594 146.428 123.861 146.816C123.129 147.204 122.558 147.84 122.25 148.61" stroke="#263238" stroke-width="0.75" stroke-linecap="round" stroke-linejoin="round"/>
<path d="M98.43 179.06C98.43 179.06 98.43 172.22 110.22 173.28C124.55 174.58 130.33 181.92 130.33 181.92L98.43 179.06Z" fill="#172554" stroke="#263238" stroke-linecap="round" stroke-linejoin="round"/>
<path d="M121.55 177.83C130.48 178.83 146.05 180.98 145.12 204.99C144.19 229 140.73 267.83 140.73 267.83C140.73 267.83 96.07 286.91 91 269.21C91 269.21 93.32 249.21 85.92 218.08C78.52 186.95 81.87 173.5 121.55 177.83Z" fill="#263238"/>
<mask id="mask7_396_4721" style="mask-type:luminance" maskUnits="userSpaceOnUse" x="82" y="177" width="64" height="100">
<path d="M121.55 177.83C130.48 178.83 146.05 180.98 145.12 204.99C144.19 229 140.73 267.83 140.73 267.83C140.73 267.83 96.07 286.91 91 269.21C91 269.21 93.32 249.21 85.92 218.08C78.52 186.95 81.87 173.5 121.55 177.83Z" fill="white"/>
</mask>
<g mask="url(#mask7_396_4721)">
<path opacity="0.2" d="M147.38 245.17C147.38 245.17 141.55 246.57 123.69 236.85C95.69 221.58 92.55 199.17 84.69 202.85C76.83 206.53 92.46 278.8 92.46 278.8L121.46 280.62H148.34L147.38 245.17Z" fill="black"/>
</g>
<path d="M121.55 177.83C130.48 178.83 146.05 180.98 145.12 204.99C144.19 229 140.73 267.83 140.73 267.83C140.73 267.83 96.07 286.91 91 269.21C91 269.21 93.32 249.21 85.92 218.08C78.52 186.95 81.87 173.5 121.55 177.83Z" stroke="#263238" stroke-linecap="round" stroke-linejoin="round"/>
<path d="M70 235.2C69.5 235.32 68.97 235.47 68.41 235.65" stroke="#7F7F7F" stroke-width="0.75" stroke-linecap="round" stroke-linejoin="round"/>
<path d="M77.38 235.65C77.38 235.65 75.5 234.31 71.38 234.93" stroke="#7F7F7F" stroke-width="0.75" stroke-linecap="round" stroke-linejoin="round"/>
<path d="M125 178.27C125 178.27 140.47 178.37 147.4 182.53C147.4 182.53 159.65 180.45 164.51 182.53L168.9 166.12C168.9 166.12 174.68 163.34 177.45 167.5C177.45 167.5 179.53 192.5 176.07 194.55C172.61 196.6 145.13 202.87 145.13 202.87C145.13 202.87 127.58 197.59 125 178.27Z" fill="#263238"/>
<mask id="mask8_396_4721" style="mask-type:luminance" maskUnits="userSpaceOnUse" x="125" y="165" width="54" height="38">
<path d="M125 178.27C125 178.27 140.47 178.37 147.4 182.53C147.4 182.53 159.65 180.45 164.51 182.53L168.9 166.12C168.9 166.12 174.68 163.34 177.45 167.5C177.45 167.5 179.53 192.5 176.07 194.55C172.61 196.6 145.13 202.87 145.13 202.87C145.13 202.87 127.58 197.59 125 178.27Z" fill="white"/>
</mask>
<g mask="url(#mask8_396_4721)">
<path opacity="0.2" d="M145 198.63C145 198.63 144.19 192.2 156 193.03C167.81 193.86 177 194.09 178.17 188.54C179.34 182.99 192.29 173.39 188.17 191.36L184 209.36L159.16 211L145 198.63Z" fill="black"/>
</g>
<path d="M125 178.27C125 178.27 140.47 178.37 147.4 182.53C147.4 182.53 159.65 180.45 164.51 182.53L168.9 166.12C168.9 166.12 174.68 163.34 177.45 167.5C177.45 167.5 179.53 192.5 176.07 194.55C172.61 196.6 145.13 202.87 145.13 202.87C145.13 202.87 127.58 197.59 125 178.27Z" stroke="#263238" stroke-linecap="round" stroke-linejoin="round"/>
<path d="M167.38 183.76C168.716 184.849 169.864 186.15 170.78 187.61" stroke="#7F7F7F" stroke-width="0.75" stroke-linecap="round" stroke-linejoin="round"/>
<path d="M164.88 182.69C165.257 182.688 165.629 182.77 165.97 182.93" stroke="#7F7F7F" stroke-width="0.75" stroke-linecap="round" stroke-linejoin="round"/>
<path d="M85.59 211C85.05 205.82 83.59 196.31 84.16 189.73" stroke="#7F7F7F" stroke-width="0.75" stroke-linecap="round" stroke-linejoin="round"/>
<path d="M81.5 198.63C81.5 198.63 84.2 214.63 85.5 214.63" stroke="#7F7F7F" stroke-width="0.75" stroke-linecap="round" stroke-linejoin="round"/>
<path d="M91.21 258.05V267.03" stroke="#7F7F7F" stroke-width="0.75" stroke-linecap="round" stroke-linejoin="round"/>
<path d="M106.45 280.64C106.45 280.64 107.9 290.79 112.36 297.06L106.45 280.64Z" fill="#999999"/>
<path d="M106.45 280.64C106.45 280.64 107.9 290.79 112.36 297.06" stroke="#263238" stroke-linecap="round" stroke-linejoin="round"/>
<path d="M167.64 164.23L166.64 167.95C166.64 167.95 173.4 166.35 179.38 169.56L178.77 165.21C178.77 165.21 174.9 162.32 167.64 164.23Z" fill="#172554" stroke="#263238" stroke-linecap="round" stroke-linejoin="round"/>
<path d="M130.71 260.13C125.84 262.29 116.18 264.19 97.21 262.32" stroke="#7F7F7F" stroke-width="0.75" stroke-linecap="round" stroke-linejoin="round"/>
<path d="M135.59 256.15C135.175 257.069 134.51 257.852 133.67 258.41" stroke="#7F7F7F" stroke-width="0.75" stroke-linecap="round" stroke-linejoin="round"/>
<path d="M149 183L156.89 187.88" stroke="#7F7F7F" stroke-width="0.75" stroke-linecap="round" stroke-linejoin="round"/>
<path d="M136.68 224.07C141.723 218.134 144.86 210.816 145.68 203.07" stroke="#7F7F7F" stroke-width="0.75" stroke-linecap="round" stroke-linejoin="round"/>
<path d="M132.08 222.62C125.669 230.024 117.661 235.878 108.66 239.74" stroke="#7F7F7F" stroke-width="0.75" stroke-linecap="round" stroke-linejoin="round"/>
<path d="M136 217.54C135.25 218.62 134.46 219.67 133.63 220.7" stroke="#7F7F7F" stroke-width="0.75" stroke-linecap="round" stroke-linejoin="round"/>
<path d="M138.41 213.92C138.03 214.56 137.63 215.18 137.23 215.8" stroke="#7F7F7F" stroke-width="0.75" stroke-linecap="round" stroke-linejoin="round"/>
<path d="M95.18 252C105.3 256.625 116.559 258.166 127.55 256.43" stroke="#7F7F7F" stroke-width="0.75" stroke-linecap="round" stroke-linejoin="round"/>
<path d="M122.25 127.82C123.283 127.37 124.268 126.817 125.19 126.17" stroke="#7F7F7F" stroke-width="0.75" stroke-linecap="round" stroke-linejoin="round"/>
<path d="M97.89 151.43C97.89 151.43 92.34 141.25 98.75 135.7C103.64 131.48 112.36 131.08 119.34 128.9" stroke="#7F7F7F" stroke-width="0.75" stroke-linecap="round" stroke-linejoin="round"/>
<path d="M102.56 144.2C102.248 143.275 102.197 142.281 102.412 141.329C102.627 140.376 103.101 139.501 103.78 138.8C107.59 135.18 118.71 134.8 124.25 129.29" stroke="#7F7F7F" stroke-width="0.75" stroke-linecap="round" stroke-linejoin="round"/>
<path d="M104.82 148.91C104.361 148.277 103.953 147.608 103.6 146.91" stroke="#7F7F7F" stroke-width="0.75" stroke-linecap="round" stroke-linejoin="round"/>
</svg>
