<svg width="26" height="25" viewBox="0 0 26 25" fill="none" xmlns="http://www.w3.org/2000/svg">
<path d="M12.6667 0.447998L21.4024 8.724L19.4124 10.6093L14.0741 5.552V18.3333H11.2593V5.552L5.92096 10.6093L3.93089 8.724L12.6667 0.447998ZM0 21V15.6667H2.81481V21C2.81481 21.3536 2.9631 21.6928 3.22704 21.9428C3.49098 22.1929 3.84895 22.3333 4.22222 22.3333H21.1111C21.4844 22.3333 21.8424 22.1929 22.1063 21.9428C22.3702 21.6928 22.5185 21.3536 22.5185 21V15.6667H25.3333V21C25.3333 22.0609 24.8885 23.0783 24.0967 23.8284C23.3049 24.5786 22.2309 25 21.1111 25H4.22222C3.10242 25 2.02848 24.5786 1.23666 23.8284C0.44484 23.0783 0 22.0609 0 21Z" fill="#402905"/>
</svg>
