<svg width="27" height="28" viewBox="0 0 27 28" fill="none" xmlns="http://www.w3.org/2000/svg">
<path d="M24.5333 14.8799C24.3195 14.6366 24.2016 14.3238 24.2016 13.9999C24.2016 13.6761 24.3195 13.3633 24.5333 13.1199L26.2399 11.1999C26.428 10.9902 26.5448 10.7262 26.5735 10.446C26.6023 10.1657 26.5415 9.88352 26.3999 9.63994L23.7333 5.02661C23.5931 4.7833 23.3798 4.59044 23.1236 4.47552C22.8674 4.3606 22.5815 4.32949 22.3066 4.38661L19.7999 4.89328C19.481 4.95918 19.1489 4.90606 18.8665 4.74394C18.584 4.58182 18.3706 4.32192 18.2666 4.01328L17.4533 1.57327C17.3638 1.30845 17.1934 1.07843 16.9661 0.915731C16.7388 0.753033 16.4661 0.665887 16.1866 0.666608H10.8533C10.5625 0.651432 10.2748 0.731843 10.034 0.89556C9.79327 1.05928 9.61271 1.2973 9.51994 1.57327L8.77328 4.01328C8.66928 4.32192 8.45591 4.58182 8.17343 4.74394C7.89095 4.90606 7.5589 4.95918 7.23994 4.89328L4.66661 4.38661C4.40601 4.34978 4.14034 4.3909 3.90307 4.50479C3.6658 4.61868 3.46754 4.80025 3.33328 5.02661L0.66661 9.63994C0.52149 9.88081 0.456239 10.1614 0.480187 10.4416C0.504134 10.7218 0.616053 10.9872 0.799943 11.1999L2.49328 13.1199C2.70704 13.3633 2.82492 13.6761 2.82492 13.9999C2.82492 14.3238 2.70704 14.6366 2.49328 14.8799L0.799943 16.7999C0.616053 17.0127 0.504134 17.2781 0.480187 17.5583C0.456239 17.8385 0.52149 18.1191 0.66661 18.3599L3.33328 22.9733C3.47341 23.2166 3.68677 23.4094 3.94295 23.5244C4.19912 23.6393 4.48504 23.6704 4.75994 23.6133L7.26661 23.1066C7.58557 23.0407 7.91761 23.0938 8.20009 23.2559C8.48257 23.4181 8.69594 23.678 8.79994 23.9866L9.61328 26.4266C9.70605 26.7026 9.8866 26.9406 10.1274 27.1043C10.3681 27.268 10.6559 27.3485 10.9466 27.3333H16.2799C16.5595 27.334 16.8321 27.2469 17.0594 27.0842C17.2867 26.9215 17.4572 26.6914 17.5466 26.4266L18.3599 23.9866C18.4639 23.678 18.6773 23.4181 18.9598 23.2559C19.2423 23.0938 19.5743 23.0407 19.8933 23.1066L22.3999 23.6133C22.6748 23.6704 22.9608 23.6393 23.2169 23.5244C23.4731 23.4094 23.6865 23.2166 23.8266 22.9733L26.4933 18.3599C26.6348 18.1164 26.6956 17.8342 26.6669 17.5539C26.6381 17.2737 26.5213 17.0097 26.3333 16.7999L24.5333 14.8799ZM22.5466 16.6666L23.6133 17.8666L21.9066 20.8266L20.3333 20.5066C19.373 20.3103 18.374 20.4734 17.5261 20.965C16.6781 21.4566 16.0401 22.2424 15.7333 23.1733L15.2266 24.6666H11.8133L11.3333 23.1466C11.0264 22.2157 10.3885 21.4299 9.54048 20.9383C8.69251 20.4468 7.69357 20.2836 6.73328 20.4799L5.15994 20.7999L3.42661 17.8533L4.49328 16.6533C5.14922 15.9199 5.51185 14.9705 5.51185 13.9866C5.51185 13.0027 5.14922 12.0533 4.49328 11.3199L3.42661 10.1199L5.13328 7.18661L6.70661 7.50661C7.6669 7.7029 8.66585 7.53978 9.51381 7.04821C10.3618 6.55663 10.9997 5.77082 11.3066 4.83994L11.8133 3.33327H15.2266L15.7333 4.85327C16.0401 5.78415 16.6781 6.56996 17.5261 7.06154C18.374 7.55312 19.373 7.71624 20.3333 7.51994L21.9066 7.19994L23.6133 10.1599L22.5466 11.3599C21.898 12.0916 21.5399 13.0355 21.5399 14.0133C21.5399 14.991 21.898 15.9349 22.5466 16.6666ZM13.5199 8.66661C12.4651 8.66661 11.434 8.9794 10.5569 9.56544C9.67984 10.1515 8.99625 10.9844 8.59258 11.959C8.18892 12.9335 8.0833 14.0059 8.28909 15.0404C8.49487 16.075 9.00283 17.0253 9.74871 17.7712C10.4946 18.5171 11.4449 19.025 12.4795 19.2308C13.514 19.4366 14.5864 19.331 15.5609 18.9273C16.5355 18.5236 17.3684 17.84 17.9544 16.963C18.5405 16.0859 18.8533 15.0548 18.8533 13.9999C18.8533 12.5855 18.2914 11.2289 17.2912 10.2287C16.291 9.22851 14.9344 8.66661 13.5199 8.66661ZM13.5199 16.6666C12.9925 16.6666 12.477 16.5102 12.0384 16.2172C11.5999 15.9242 11.2581 15.5077 11.0563 15.0204C10.8544 14.5332 10.8016 13.997 10.9045 13.4797C11.0074 12.9624 11.2614 12.4873 11.6343 12.1143C12.0073 11.7414 12.4824 11.4874 12.9997 11.3845C13.517 11.2816 14.0532 11.3344 14.5404 11.5363C15.0277 11.7381 15.4442 12.0799 15.7372 12.5184C16.0302 12.957 16.1866 13.4725 16.1866 13.9999C16.1866 14.7072 15.9057 15.3855 15.4056 15.8856C14.9055 16.3857 14.2272 16.6666 13.5199 16.6666Z" fill="#402905"/>
</svg>
